<?xml version="1.0" encoding="utf-8" ?>
<!-- Generated by AutoXChange V19.02.03 from Tailor Made Software -->
<!-- www.tailormade.com -->
<!DOCTYPE svg PUBLIC '-//W3C//DTD SVG 1.0//EN' 
'http://www.w3.org/TR/2001/REC-SVG-20010904/DTD/svg10.dtd'>
<svg contentScriptType="text/ecmascript" xmlns:xlink="http://www.w3.org/1999/xlink" zoomAndPan="magnify" 
contentStyleType="text/css" preserveAspectRatio="xMidYMid meet" 
width="1392.29" height="983.378" viewBox="0 0 1392.29 983.378" 
version="1.1" xmlns="http://www.w3.org/2000/svg" xmlns:cvjs="http://www.tailormade.com/" stroke-linecap="round" stroke-linejoin="round" fill-rule="evenodd" >
<defs>
	<style type = "text/css">
	    <![CDATA[
		.ns-tecnica {
		    position: relative;
		    z-index: 10;
		    fill: red;
		    opacity: 0.01;
		    stroke: none;
		}

		.ns-tecnica path {
		    position: relative;
		    z-index: 10;
		    fill: red;
		    opacity: 0.01;
		    stroke: none;
		}

		.ns-area {
		    position: relative;
		    z-index: 5;
		    opacity: .01;
		}
		.tmsPoints {
		    stroke-width: 1;
		}
		.sClr_black {
		    stroke: rgb(0,0,0);
		    fill: none;
		}
		.sClr_red {
		    stroke: rgb(255,0,0);
		    fill: none;
		}
		.greyscale.sClr_red {
		    stroke: rgb(77,77,77);
		    fill: none;
		}
		.sClr_green {
		    stroke: rgb(0,255,0);
		    fill: none;
		}
		.greyscale.sClr_green {
		    stroke: rgb(150,150,150);
		    fill: none;
		}
		.sClr_blue {
		    stroke: rgb(0,0,255);
		    fill: none;
		}
		.greyscale.sClr_blue {
		    stroke: rgb(28,28,28);
		    fill: none;
		}
		.sClr_yellow {
		    stroke: rgb(255,255,0);
		    fill: none;
		}
		.greyscale.sClr_yellow {
		    stroke: rgb(227,227,227);
		    fill: none;
		}
		.sClr_cyan {
		    stroke: rgb(0,255,255);
		    fill: none;
		}
		.greyscale.sClr_cyan {
		    stroke: rgb(179,179,179);
		    fill: none;
		}
		.sClr_magenta {
		    stroke: rgb(255,0,255);
		    fill: none;
		}
		.greyscale.sClr_magenta {
		    stroke: rgb(105,105,105);
		    fill: none;
		}
		.fClr_black {
		    fill: rgb(0,0,0);
		    stroke-width: 0;
		}
		.fClr_red {
		    fill: rgb(255,0,0);
		    stroke-width: 0;
		}
		.fClr_green {
		    fill: rgb(0,255,0);
		    stroke-width: 0;
		}
		.fClr_blue {
		    fill: rgb(0,0,255);
		    stroke-width: 0;
		}
		.fClr_yellow {
		    fill: rgb(255,255,0);
		    stroke-width: 0;
		}
		.fClr_cyan {
		    fill: rgb(0,255,255);
		    stroke-width: 0;
		}
		.fClr_magenta {
		    fill: rgb(255,0,255);
		    stroke-width: 0;
		}
		:root {
		    --tmsLt_Scale: 1;
		    --tmsLt_Scale2: 2;
		    --tmsLt_Scale3: 3;
		    --tmsLt_Scale4: 4;
		    --tmsLt_Scale5: 5;
		    --tmsLt_Scale6: 6;
		    --tmsLt_Scale7: 7;
		    --tmsbPostFix: 0;
		}
		.sLt_Dash {
		    stroke-dasharray: 2 , 2;
		    stroke-dasharray: var(--tmsLt_Scale2), var(--tmsLt_Scale2)
		}
		.sLt_DashX2 {
		    stroke-dasharray: 4 , 2;
		    stroke-dasharray: var(--tmsLt_Scale4), var(--tmsLt_Scale2);
		}
		.sLt_DashDot {
		    stroke-dasharray: 5 , 2 , 1 , 2;
		    stroke-dasharray: var(--tmsLt_Scale5) , var(--tmsLt_Scale2) , var(--tmsLt_Scale) , var(--tmsLt_Scale2);
		}
		.sLt_Dot {
		    stroke-dasharray: 1;
		    stroke-dasharray: var(--tmsLt_Scale);
		}
		.sLt_Hidden {
		    stroke-dasharray: 5 , 2;
		    stroke-dasharray: var(--tmsLt_Scale5) , var(--tmsLt_Scale2);
		}
		.sLt_Divide {
		    stroke-dasharray: 5 , 5;
		    stroke-dasharray: var(--tmsLt_Scale5) , var(--tmsLt_Scale5);
		}
		.sLt_Center {
		    stroke-dasharray: 5 , 2 , 2 , 2;
		    stroke-dasharray: var(--tmsLt_Scale5) , var(--tmsLt_Scale2) , var(--tmsLt_Scale2) , var(--tmsLt_Scale2);
		}
		.sLt_Phantom {
		    stroke-dasharray: 7 , 2 , 2 , 2 , 2 , 2;
		    stroke-dasharray: var(--tmsLt_Scale7) , var(--tmsLt_Scale2) , var(--tmsLt_Scale2) , var(--tmsLt_Scale2) , var(--tmsLt_Scale2) , var(--tmsLt_Scale2);
		}
		.sLt_DgnDot {
		    stroke-dasharray: 1 , 3;
		    stroke-dasharray: var(--tmsLt_Scale) , var(--tmsLt_Scale3);
		}
		.sLt_DgnDash {
		    stroke-dasharray: 3 , 1;
		    stroke-dasharray: var(--tmsLt_Scale3), var(--tmsLt_Scale)
		}
		.sLt_DgnDash2 {
		    stroke-dasharray: 6 , 2;
		    stroke-dasharray: var(--tmsLt_Scale6), var(--tmsLt_Scale2);
		}
		.sLt_DgnDashDot {
		    stroke-dasharray: 3 , 1 , 1 , 1;
		    stroke-dasharray: var(--tmsLt_Scale3) , var(--tmsLt_Scale) , var(--tmsLt_Scale) , var(--tmsLt_Scale);
		}
		.sLt_Dgn5 {
		    stroke-dasharray: 3 , 3;
		    stroke-dasharray: var(--tmsLt_Scale3) , var(--tmsLt_Scale3);
		}
		.sLt_Dgn6 {
		    stroke-dasharray: 3 , 1 , 1 , 1 , 1 , 1;
		    stroke-dasharray: var(--tmsLt_Scale3) , var(--tmsLt_Scale) , var(--tmsLt_Scale) , var(--tmsLt_Scale) , var(--tmsLt_Scale) , var(--tmsLt_Scale);
		}
		.sLt_Dgn7 {
		    stroke-dasharray: 4 , 12 , 1;
		    stroke-dasharray: var(--tmsLt_Scale4) , var(--tmsLt_Scale1) , var(--tmsLt_Scale2) , var(--tmsLt_Scale1);
		}
	]]></style>
	</defs>
<metadata>
<text id="cadviewer_drawingCoordinates">
{ "DWG": 
    { "lowerLeft": { "x": 1.61658e+06, "y" : -138606}, 
      "upperRight": { "x": 1.68087e+06, "y" : -93200.8} 
    },
 "SVG": 
    { "lowerLeft": { "x": 447.542, "y" : 1388.32}, 
      "upperRight": { "x": 1839.83, "y" : 404.945} 
    },
 "Drawing Height": 2500
}
</text>
<text id="cadviewer_vqBuilding"></text>
<text id="cadviewer_vqFloor"></text>
<text id="cadviewer_multiPages">
{ "multiPages": 2, 
                   "currentPage":1,
                   "pages" : [
                        { "fileName":"dwgfile-3449c9e5e332f1dbb81505cd739fbf3f", "pageName":"ModelSpace"},
                        { "fileName":"dwgfile-3449c9e5e332f1dbb81505cd739fbf3f__Layout01", "pageName":"\u5E03\u5C401"}
                   ]
}
</text>
</metadata>
<g id="layer_0P" class="layer_0P"  cvjs:layerName="0P" cvjs:status="ON">
<path id="cv_1" class="sClr_yellow" stroke-width="0.4" d="M598.75,382.24l0,-8.66M578.3,373.58l0,8.66M578.3,382.24h20.46M579.78,424.93l0,-42.69M597.1,424.93l0,-42.69M593.73,344.15l-6.13,6.13M598.75,373.58h-20.46M587.6,350.28l14.46,14.46M579.78,373.58l0,-13.02M579.78,360.56l9.06,-9.05M608.19,358.62l-14.46,-14.46M607.22,357.64l18.28,-18.26M597.1,367.75l3.99,-3.98M597.1,373.58l0,-5.83M602.07,364.74l6.13,-6.13M612.01,325.9l14.46,14.46M594.97,345.39l18.28,-18.26M637.02,98.52L637.02,228.18M654.35,98.15L654.35,228.18M635.52,236.84h20.46M655.97,228.18h-20.46M635.52,228.18l0,8.66M655.97,236.84l0,-8.66M655.97,274.64h-20.46M635.52,283.3h20.46M635.52,274.64l0,8.66M655.97,283.3l0,-8.66M654.35,266.41l5.47,5.47M700.07,288.73l8.62,8.61M689.86,310.32h20.46M710.32,318.98h-20.46M665.95,277.99l15.69,16.92M680.46,296.1l14.46,-14.46M701.05,287.76l-14.46,14.46M686.58,302.22l-6.13,-6.13M691.36,304.52l0,5.8M689.86,318.98l0,-8.66M687.82,300.98l3.54,3.54M678.2,265.74l15.69,16.92M694.92,281.63l6.13,6.13M710.32,310.32l0,8.66M708.69,297.34l0,12.98M679.35,264.59l-14.46,14.46M673.23,258.46l6.13,6.13M658.77,272.92l14.46,-14.46M664.89,279.05l-6.13,-6.13M708.69,318.98L708.69,426.31M691.36,318.98L691.36,426.31M637.02,274.64l0,-37.8M654.35,274.64l0,-8.23M654.35,241.92l0,-5.07M637.02,283.46l0,6.03M654.35,283.09l0,6.41M654.35,335.96l-0,-37.8M635.4,335.96h20.46M637.02,327.72l-5.47,5.47M637.02,335.96l0,-8.23M655.85,344.62h-20.46M655.85,335.96l0,8.66M635.4,344.62l0,-8.66M626.48,340.37l6.13,-6.13M655.85,298.16h-20.46M635.4,289.5h20.46M655.85,289.5l0,8.66M635.4,298.16l0,-8.66M637.02,303.23l0,-5.07M632.6,334.24l-14.46,-14.46M618.14,319.78l-6.13,6.13M612.01,325.9l14.46,14.46M637.02,327.72l0,8.23M637.02,298.16l0,5.07M654.35,298.16l-0,37.8M637.02,344.62l0,80.34M654.35,344.62l0,79.95M1075.65,145.33L1075.65,260.92M1092.98,144.96L1092.98,260.92M1150.9,354.74l0,40.47M1133.58,354.74l0,40.47M984.76,297.01l14.46,14.46M1005.34,305.35l-14.46,-14.46M1092.98,316.04l0,82.63M1075.65,316.04l0,83.02M969.85,396.04l0,-42.69M952.52,396.04l0,-42.69M993.76,314.98l4.48,-4.48M999.22,311.48l6.13,-6.13M1097.4,305.66l14.46,-14.46M1075.65,307.38l0,-37.8M1117.99,297.33l-14.46,14.46M1116.83,298.48l5.63,6.07M1104.58,310.73l5.63,6.07M1152.53,354.74h-20.46M990.88,290.89l-6.13,6.13M1094.6,307.38h-20.46M1092.98,299.15l5.47,5.47M1092.98,307.38l0,-8.23M1074.15,316.04h20.46M1074.15,307.38l0,8.66M1094.6,316.04l0,-8.66M1103.52,311.79l-6.13,-6.13M1074.15,269.58h20.46M1094.6,260.92h-20.46M1074.15,260.92l0,8.66M1094.6,269.58l0,-8.66M1111.86,291.2l6.13,6.13M1092.98,274.66l0,-5.07M952.52,306.02l0,37.8M969.85,314.25l5.47,-5.47M969.85,306.02l0,8.23M974.27,307.74l14.46,14.46M969.85,314.25l0,-8.23M952.52,343.82l0,-37.8M951.02,306.02l0,-8.66M971.47,297.36l0,8.66M980.39,301.61l-6.13,6.13M951.02,297.36h20.46M971.47,306.02h-20.46M951.02,343.82h20.46M971.47,352.48h-20.46M951.02,352.48l0,-8.66M971.47,343.82l0,8.66M969.85,338.74l0,5.07M969.85,343.82l0,-5.07M994.86,316.07l-14.46,-14.46M988.73,322.2l6.13,-6.13M981.51,302.72l4.48,-4.48M952.52,145.48L952.52,297.36M969.85,145.48L969.85,297.36M1108.69,318.33l14.46,-14.46M1151.02,308.28l-0,37.8M1129.28,309.99l-14.46,14.46M1123.15,303.87l6.13,6.13M1132.07,299.61l0,8.66M1152.53,308.28l0,-8.66M1152.53,299.61h-20.46M1133.7,308.28l0,8.23M1133.7,316.51l-5.47,-5.47M1132.07,308.28h20.46M1133.7,341l0,5.07M1114.81,324.45l-6.13,-6.13M1132.07,346.07l0,8.66M1152.53,354.74l0,-8.66M1132.07,354.74h20.46M1152.53,346.07h-20.46M1133.58,144.41L1133.58,299.61M1150.9,144.41L1150.9,299.61M1027.09,315.73l0,79.95M1009.76,315.73l0,80.34M1027.09,269.27l0,37.8M1009.76,298.83l0,8.23M1009.76,307.07l0,-8.23M1009.76,298.83l-5.47,5.47M1027.09,307.07l0,-37.8M1008.14,307.07h20.46M1028.59,315.73h-20.46M1008.14,315.73l0,-8.66M1028.59,307.07l0,8.66M1009.76,269.27l0,5.07M1009.76,274.34l0,-5.07M1008.14,269.27l0,-8.66M1028.59,260.61l0,8.66M1008.14,260.61h20.46M1028.59,269.27h-20.46M1009.76,145.33L1009.76,260.61M1027.09,144.96L1027.09,260.61" />
<path id="cv_2" class="sClr_yellow" stroke-width="0.4" d="M645.49,98.04A 5.18501 5.18501 0 0 0 637.02 98.52M645.49,98.04A 6.42774 6.42774 0 0 0 654.35 98.15M654.35,98.15A 5.9395 5.9395 0 0 0 644.93 97.48M708.69,426.31A 5.9395 5.9395 0 0 0 699.28 425.64M699.84,426.21A 5.18501 5.18501 0 0 0 691.36 426.69M699.84,426.2A 6.42774 6.42774 0 0 0 708.69 426.31M588.25,424.82A 6.42774 6.42774 0 0 0 597.1 424.93M597.1,424.93A 5.9395 5.9395 0 0 0 587.69 424.26M588.25,424.82A 5.18501 5.18501 0 0 0 579.78 425.3" /><path id="cv_3" class="sClr_yellow" stroke-width="0.6" d="M645.5,424.47A 5.18501 5.18501 0 0 0 637.02 424.96M654.35,424.57A 5.9395 5.9395 0 0 0 644.94 423.91M645.5,424.47A 6.42774 6.42774 0 0 0 654.35 424.58M1092.98,398.68A 5.9395 5.9395 0 0 0 1083.57 398.01M1084.13,398.57A 5.18501 5.18501 0 0 0 1075.65 399.06M1084.13,398.57A 6.42774 6.42774 0 0 0 1092.98 398.68M1150.9,395.2A 5.9395 5.9395 0 0 0 1141.49 394.53M1142.05,395.09A 5.18501 5.18501 0 0 0 1133.58 395.57M1142.05,395.09A 6.42774 6.42774 0 0 0 1150.9 395.2M960.99,395.93A 5.18501 5.18501 0 0 0 952.52 396.41M969.85,396.04A 5.9395 5.9395 0 0 0 960.43 395.37M960.99,395.93A 6.42774 6.42774 0 0 0 969.85 396.04M1084.12,144.85A 5.18501 5.18501 0 0 0 1075.65 145.33M1084.12,144.85A 6.42774 6.42774 0 0 0 1092.98 144.96M1092.98,144.96A 5.9395 5.9395 0 0 0 1083.56 144.29M969.85,145.48A 6.42774 6.42774 0 0 0 960.99 145.58M960.43,146.14A 5.9395 5.9395 0 0 0 969.85 145.48M952.52,145.1A 5.18501 5.18501 0 0 0 960.99 145.59M1150.9,144.41A 6.42774 6.42774 0 0 0 1142.05 144.52M1141.49,145.08A 5.9395 5.9395 0 0 0 1150.9 144.41M1133.58,144.04A 5.18501 5.18501 0 0 0 1142.05 144.52M1027.09,395.68A 5.9395 5.9395 0 0 0 1017.68 395.02M1018.24,395.58A 5.18501 5.18501 0 0 0 1009.76 396.07M1018.24,395.58A 6.42774 6.42774 0 0 0 1027.09 395.69M1018.24,144.85A 5.18501 5.18501 0 0 0 1009.76 145.33M1018.24,144.85A 6.42774 6.42774 0 0 0 1027.09 144.96M1027.09,144.96A 5.9395 5.9395 0 0 0 1017.67 144.29" />
<path id="cv_4" class="fClr_black" opacity="0.7" d="M250.31,765.74h2.81l-2.81,-5.38l0,5.38M253.13,765.74l0,-5.38h-2.81l2.81,5.38M218.76,765.74h2.81l-2.81,-5.38l0,5.38M221.57,765.74l0,-5.38h-2.81l2.81,5.38 Z "/>
<g style="font-family:'romant'; stroke:none; fill:black ;" >
<g font-size="13.2323" >
<text id="cv_5" x="584.47" y="154.13" >&#204;&#168;&#172;&#195;&#230;</text>
<text id="cv_6" x="660.31" y="124.5" >&#206;&#192;&#201;&#x06BC;&#228;&#x05E8;&#211;&#195;&#x0368;&#198;&#248;b&#185;&#220;</text>
<text id="cv_7" x="673.01" y="249.46" >DN10045 &#167;&#210;&#200;&#253;&#x0368;</text>
<text id="cv_8" x="693" y="273.6" >DN100&#182;&#x0339;&#220;</text>
<text id="cv_9" x="715.85" y="301.93" >DN10045 &#205;&#228;&#x0377;</text>
<text id="cv_10" x="712.35" y="351.41" >&#206;&#192;&#201;&#x06BC;&#228;&#206;&#219;&#x02EE;b&#185;&#220;</text>
<text id="cv_11" x="538.34" y="339.21" >DN100&#182;&#x0339;&#220;</text>
<text id="cv_12" x="493.17" y="363.26" >DN10045 &#205;&#228;&#x0377;</text>
<text id="cv_13" x="499.33" y="404.63" >&#206;&#192;&#201;&#x06BC;&#x0137;&#207;&#x02EE;b&#185;&#220;</text>
<text id="cv_14" x="570.96" y="286.2" >DN100&#182;&#x0339;&#220;</text>
<text id="cv_15" x="1031.17" y="128.24" >&#206;&#192;&#201;&#x06BC;&#228;&#x05E8;&#211;&#195;&#x0368;&#198;&#248;b&#185;&#220;</text>
<text id="cv_16" x="789.76" y="442.56" >&#x05E2;:b&#185;&#220;&#211;&#235;&#x05E8;&#211;&#195;&#x0368;&#198;&#x0639;&#220;l&#189;&#x04F5;&#196;&#166;&#203;&#214;&#254;&#223;&#204;&#x017C;&#251;&#197;&#197;&#x02EE;&#x03F5;&#x0373;&#x037C;</text>
<text id="cv_17" x="889.44" y="286.07" >DN100&#182;&#x0339;&#220;</text>
<text id="cv_18" x="1152.1" y="282.71" >DN100&#182;&#x0339;&#220;</text>
<text id="cv_19" x="1155.48" y="330.57" >DN10045 &#167;&#210;&#200;&#253;&#x0368;</text>
<text id="cv_20" x="1152.17" y="370.71" >&#206;&#192;&#201;&#x06BC;&#228;&#206;&#219;&#x02EE;b&#185;&#220;</text>
<text id="cv_21" x="872.18" y="374.76" >&#206;&#192;&#201;&#x06BC;&#x0137;&#207;&#x02EE;b&#185;&#220;</text>
<text id="cv_22" x="852.31" y="331.96" >DN10045 &#167;&#210;&#200;&#253;&#x0368;</text>
<text id="cv_23" x="889.97" y="269.73" >DN10045 &#167;&#210;&#200;&#253;&#x0368;</text>
<text id="cv_24" x="1118.15" y="266.34" >DN10045 &#167;&#210;&#200;&#253;&#x0368;</text>
</g>
<g font-size="24.8105" >
<text id="cv_25" x="848.05" y="492.32" >&#206;&#192;&#201;&#x06BC;&#x0137;&#207;&#x02EE;,&#206;&#219;&#x02EE;b&#185;&#220;&#211;&#235;&#x05E8;&#211;&#195;&#x0368;&#198;&#x0639;&#220;l&#189;&#x04F0;&#178;&#x05F0;&#x037C;</text>
</g>
</g>
<path id="cv_26" class="sClr_black" stroke-width="0.4" d="M253.13,765.74h-2.81l0,-5.38h2.81M218.76,765.74h2.81l0,-5.38h-2.81" />
<path id="cv_27" class="sClr_black" stroke-width="0.4" d="M654.35,241.92l17.72,17.7M570.3,165.76H725.76M570.3,183.08H725.76M725.76,165.76l0,17.33M570.3,165.76l0,17.33M582.46,156.15h25.55M608,156.15l5.41,9.72M649.66,127.35H757.11M662.85,250.9H769.21M687.15,275.04h66.54M706.99,303.86h93.67M706.1,353.77h83.62M538.11,340.65h61.55M492.93,365.32h86.85M500.07,407.1h80.29M235.94,913.02L235.94,612.16M219.7,713.08h32.49M252.19,713.08l0,-6.5M252.19,706.58h-32.49M219.7,706.58l0,6.5M219.7,674.09l0,6.5M252.19,674.09h-32.49M252.19,680.59l0,-6.5M219.7,680.59h32.49M250.32,680.59l0,4.33M254.4,684.92h6.51M250.32,706.58l0,-2.17M256.82,697.92h4.09M267.4,699.79l0,-17.33M267.4,682.47h-6.5M260.91,682.47l0,17.33M260.91,699.79h6.5M267.4,684.92h27.47M267.4,697.92h26.93M250.32,851.88l0,-2.17M250.32,825.89l0,4.33M219.7,825.89h32.49M252.19,825.89l0,-6.5M252.19,819.39h-32.49M219.7,819.39l0,6.5M219.7,851.88l0,6.5M252.19,851.88h-32.49M252.19,858.37l0,-6.5M219.7,858.37h32.49M254.4,830.22h6.51M267.4,843.21h26.93M256.82,843.21h4.09M267.4,830.22h27.47M267.4,827.76h-6.5M267.4,845.09l0,-17.33M260.91,827.76l0,17.33M260.91,845.09h6.5M250.32,819.39L250.32,713.08M221.57,819.39L221.57,713.08M219.7,648.1h32.49M252.19,648.1l0,-6.5M252.19,641.61h-32.49M219.7,641.61l0,6.5M219.7,890.86h32.49M252.19,890.86l0,-6.5M252.19,884.36h-32.49M219.7,884.36l0,6.5M637.02,303.23l-17.72,17.7M570.86,287.64h69.95M1148.24,332.58H1250.43M1147.39,373.02h81.67M1092.99,130.32h38.19M926.55,212.57H1043.76M926.55,229.9H1043.76M873.79,376.71h83.27M1009.76,274.34l-17.72,17.7M1092.98,274.66l17.72,17.7M926.55,212.57l0,17.33M1168.08,212.57l0,17.33M969.85,338.74l17.72,-17.7M1133.7,341l-17.72,-17.7M1083.58,143.63l9.41,-13.31M888.63,288.39h78.9M984.05,301.91l-16.52,-13.53M1134.67,284.53h78.8M1118.03,302.97l16.64,-18.44M850.72,333.9H957.08M1017.7,143.63l9.41,-13.31M1027.11,130.32H1128.41M888.38,271.67h99.2M1003.33,286.21l-15.75,-14.54M1116.25,268.35h96.84M1105.73,289.19l10.52,-20.84M1058.43,212.57H1168.08M1058.43,229.9H1168.08M926.55,215.86l3.29,-3.29M926.55,223.52l10.95,-10.95M927.83,229.9l17.33,-17.33M935.49,229.9l17.03,-17.03M943.14,229.9l9.38,-9.38M950.8,229.9l1.72,-1.72M969.85,218.51l5.94,-5.94M969.85,226.16l13.59,-13.59M973.77,229.9l17.33,-17.33M981.43,229.9l17.33,-17.33M989.09,229.9l17.33,-17.33M996.74,229.9l13.02,-13.02M1004.4,229.9l5.36,-5.36M1027.09,214.86l2.29,-2.29M1027.09,222.52l9.95,-9.95M1027.37,229.9l16.39,-16.39M1035.03,229.9l5.21,-5.21M1043.99,220.93l3.52,-3.52M1042.69,229.9l1.07,-1.07M1058.43,214.15l1.58,-1.58M1055.55,224.69l4.39,-4.39M1062.83,217.41l4.84,-4.84M1058.43,229.46l16.89,-16.89M1065.66,229.9l9.99,-9.99M1073.32,229.9l2.34,-2.34M1092.98,217.89l5.32,-5.32M1092.98,225.55l12.98,-12.98M1096.29,229.9l17.33,-17.33M1103.94,229.9l17.33,-17.33M1111.6,229.9l17.33,-17.33M1119.26,229.9l14.32,-14.32M1126.92,229.9l6.66,-6.66M1150.9,213.57l1,-1M1150.9,221.22l8.65,-8.65M1150.9,228.88l16.31,-16.31M1157.54,229.9l10.53,-10.53M1165.2,229.9l2.88,-2.88M263.69,736.64l0,48.73M208.2,736.64l0,48.73M178.12,743.89l0.47,-0.56M180.16,757.36l0.84,-1M190.18,745.42l0.84,-1M182.56,770.4l0.84,-1M192.59,758.45l0.84,-1M202.61,746.5l0.84,-1M184.97,783.43l0.84,-1M194.99,771.48l0.84,-1M205.01,759.54l0.84,-1M197.39,784.52l0.84,-1M207.42,772.57l0.78,-0.93M264.75,751.94l0.84,-1M274.77,740l0.84,-1M267.15,764.97l0.84,-1M277.17,753.03l0.84,-1M287.2,741.08l0.84,-1M269.55,778.01l0.84,-1M279.58,766.06l0.84,-1M289.6,754.12l0.84,-1M281.98,779.09l0.84,-1M292,767.15l0.84,-1M294.41,780.18l0.84,-1M274.77,740h1.04M287.2,741.08h1.04M178.12,744.36h0.67M190.18,745.42h1.04M202.61,746.5h1.04M264.75,751.94h1.04M277.17,753.03h1.04M289.6,754.12h1.04M180.16,757.36h1.04M192.59,758.45h1.04M205.01,759.54h1.04M267.15,764.97h1.04M279.58,766.06h1.04M292,767.15h1.04M182.56,770.4h1.04M194.99,771.48h1.04M207.42,772.57h0.78M269.55,778.01h1.04M281.98,779.09h1.04M294.41,780.18h1.04M184.97,783.43h1.04M197.39,784.52h1.04M186,783.55l-0.2,-1.09M183.6,770.51l-0.2,-1.09M181.19,757.48l-0.2,-1.09M178.79,744.45l-0.2,-1.09M198.43,784.63l-0.2,-1.09M196.02,771.6l-0.2,-1.09M193.62,758.57l-0.2,-1.09M191.21,745.54l-0.2,-1.09M206.05,759.66l-0.2,-1.09M203.64,746.62l-0.2,-1.09M270.59,778.13l-0.2,-1.09M268.18,765.09l-0.2,-1.09M265.78,752.06l-0.2,-1.09M283.01,779.21l-0.2,-1.09M280.61,766.18l-0.2,-1.09M278.21,753.15l-0.2,-1.09M275.8,740.11l-0.2,-1.09M295.44,780.3l-0.2,-1.09M293.04,767.27l-0.2,-1.09M290.63,754.23l-0.2,-1.09M288.23,741.2l-0.2,-1.09M192.67,738.45l1.35,-1.41M178.77,775.07l1.35,-1.41M194.96,758.19l1.35,-1.41M197.26,777.94l1.35,-1.41M266.63,749.92l1.35,-1.41M268.93,769.66l1.35,-1.41M285.12,752.78l1.35,-1.41M287.42,772.53l1.35,-1.41M180.31,775.33l-0.19,-1.65M198.8,778.2l-0.19,-1.65M196.5,758.45l-0.19,-1.65M194.2,738.71l-0.19,-1.65M270.47,769.92l-0.19,-1.65M268.17,750.18l-0.19,-1.65M288.96,772.79l-0.19,-1.65M286.66,753.05l-0.19,-1.65M192.67,738.45l1.54,0.24M266.63,749.92l1.54,0.24M285.12,752.78l1.54,0.24M194.96,758.19l1.54,0.24M268.93,769.66l1.54,0.24M287.42,772.53l1.54,0.24M178.77,775.07l1.54,0.24M197.26,777.94l1.54,0.24M180.96,740.07l1.21,-0.47M191.3,747.04l1.21,-0.47M205.86,741.46l1.21,-0.47M173.55,764.8h0.19M187.09,759.61l1.21,-0.47M201.64,754.02l1.21,-0.47M182.87,772.17l1.21,-0.47M197.43,766.58l1.21,-0.47M270.22,738.64l1.21,-0.47M178.66,784.74l1.21,-0.47M193.21,779.15l1.21,-0.47M207.77,773.56l0.43,-0.16M266,751.21l1.21,-0.47M280.56,745.62l1.21,-0.47M295.12,740.03l0.75,-0.29M276.34,758.18l1.21,-0.47M290.9,752.59l1.21,-0.47M272.13,770.75l1.21,-0.47M286.69,765.16l1.21,-0.47M267.91,783.31l1.21,-0.47M282.47,777.72l1.21,-0.47M292.81,784.7l1.21,-0.47M295.12,740.03l0.75,0.5M270.22,738.64l0.86,0.58M280.56,745.62l0.86,0.58M290.9,752.59l0.86,0.58M266,751.21l0.86,0.58M276.34,758.18l0.86,0.58M286.69,765.16l0.86,0.58M272.13,770.75l0.86,0.58M282.47,777.72l0.86,0.58M292.81,784.7l0.86,0.58M205.86,741.46l0.86,0.58M267.91,783.31l0.86,0.58M180.96,740.07l0.86,0.58M191.3,747.04l0.86,0.58M201.64,754.02l0.86,0.58M187.09,759.61l0.86,0.58M197.43,766.58l0.86,0.58M207.77,773.56l0.43,0.29M182.87,772.17l0.86,0.58M193.21,779.15l0.86,0.58M178.66,784.74l0.86,0.58M181.82,740.68l0.35,-1.05M179.52,785.35l0.35,-1.05M183.73,772.78l0.35,-1.05M187.95,760.22l0.35,-1.05M192.16,747.65l0.35,-1.05M194.07,779.76l0.35,-1.05M198.29,767.19l0.35,-1.05M202.5,754.63l0.35,-1.05M206.72,742.07l0.35,-1.05M266.86,751.82l0.35,-1.05M271.08,739.25l0.35,-1.05M268.77,783.92l0.35,-1.05M272.99,771.36l0.35,-1.05M277.2,758.79l0.35,-1.05M281.42,746.23l0.35,-1.05M283.33,778.33l0.35,-1.05M287.55,765.77l0.35,-1.05M291.76,753.2l0.35,-1.05M293.67,785.31l0.35,-1.05M219.87,762.98l-17.97,-47.8" />
<path id="cv_28" class="sClr_black" stroke-width="0.6" d="M256.82,697.92A 6.49733 6.49733 0 0 0 250.32 704.41M253.39,685.17A 5.83185 5.83185 0 0 0 250.32 689.54M254.4,684.92A 2.16578 2.16578 0 0 0 253.39 685.17M254.4,830.22A 2.16578 2.16578 0 0 0 253.39 830.47M253.39,830.47A 5.83185 5.83185 0 0 0 250.32 834.83M256.82,843.21A 6.49733 6.49733 0 0 0 250.32 849.71" />
<g fill="none" class="sClr_black" ><circle id="cv_29" stroke-width="0.4" cx="771.54" cy="291.53" r="1.73262" />
<circle id="cv_30" stroke-width="0.4" cx="729.54" cy="239.05" r="1.73262" />
<circle id="cv_31" stroke-width="0.4" cx="549.05" cy="352.69" r="1.73262" />
</g>
<g fill="none" class="sClr_black" ><circle id="cv_32" stroke-width="0.6" cx="1212.01" cy="320.17" r="1.73262" />
<circle id="cv_33" stroke-width="0.6" cx="908.83" cy="321.56" r="1.73262" />
<circle id="cv_34" stroke-width="0.6" cx="946.5" cy="259.32" r="1.73262" />
<circle id="cv_35" stroke-width="0.6" cx="1174.67" cy="255.94" r="1.73262" />
</g>
</g>
<g id="layer_0" class="layer_0"  cvjs:layerName="0" cvjs:status="ON">
<g style="font-family:'Arial'; stroke:none; fill:black ;" >
<g font-size="8.27017" >
<text id="cv_36" x="168.29" y="740.82" transform="rotate(270 168.29 740.82) translate(168.29 -740.82) scale(1 1) translate(-168.29 740.82) ">200</text>
<text id="cv_37" x="462.91" y="579.23" transform="rotate(270 462.91 579.23) translate(462.91 -579.23) scale(1 1) translate(-462.91 579.23) ">500</text>
<text id="cv_38" x="458.95" y="625.01" transform="rotate(270 458.95 625.01) translate(458.95 -625.01) scale(1 1) translate(-458.95 625.01) ">H/3</text>
<text id="cv_39" x="670.84" y="622.54" transform="rotate(270 670.84 622.54) translate(670.84 -622.54) scale(1 1) translate(-670.84 622.54) ">H</text>
</g>
</g>
<g style="font-family:'simplex'; stroke:none; fill:black ;" >
<g font-size="6.61613" >
<text id="cv_40" x="1100.28" y="666.49" transform="rotate(270 1100.28 666.49) translate(1100.28 -666.49) scale(1 1) translate(-1100.28 666.49) ">50</text>
<text id="cv_41" x="1105.45" y="588.82" >10</text>
<text id="cv_42" x="1097.89" y="612.19" transform="rotate(270 1097.89 612.19) translate(1097.89 -612.19) scale(1 1) translate(-1097.89 612.19) ">50</text>
<text id="cv_43" x="1077.48" y="601.59" >50</text>
<text id="cv_44" x="1134.47" y="604.19" >50</text>
<text id="cv_45" x="861.62" y="585.42" >10</text>
<text id="cv_46" x="854.06" y="608.79" transform="rotate(270 854.06 608.79) translate(854.06 -608.79) scale(1 1) translate(-854.06 608.79) ">50</text>
<text id="cv_47" x="833.65" y="598.19" >50</text>
<text id="cv_48" x="890.65" y="600.79" >50</text>
<text id="cv_49" x="856.45" y="663.09" transform="rotate(270 856.45 663.09) translate(856.45 -663.09) scale(1 1) translate(-856.45 663.09) ">50</text>
</g>
</g>
<path id="cv_50" class="sClr_black" stroke-width="0.6" d="M507.59,617.67h-3.25h-3.25M569.16,617.67h-3.25h-3.25M553.06,617.67h3.25h3.25M614.63,617.67h3.25h3.25" />
<path id="cv_51" class="sClr_black" stroke-width="0.4" d="M633.92,183.08l3.1,-3.1M623.2,183.08l13.82,-13.82M612.48,183.08l17.33,-17.33M601.76,183.08l17.33,-17.33M591.04,183.08l17.33,-17.33M580.32,183.08l17.33,-17.33M570.3,182.39l16.63,-16.63M570.3,171.67l5.91,-5.91M654.35,173.38l7.62,-7.62M655.36,183.08l17.33,-17.33M666.08,183.08l17.33,-17.33M676.8,183.08l17.33,-17.33M687.52,183.08l17.33,-17.33M698.25,183.08l17.33,-17.33M708.97,183.08l16.79,-16.79M719.69,183.08l6.07,-6.07M250.32,905.54l0,-14.68M221.57,905.54l-0,-14.68M218.17,740.24l-8.54,-42.21M215.55,797.73l-6.01,15.52M209.54,813.25h-32.31M209.63,698.03h-96.22M282.12,747.18h78.91M262.19,601.94h62.08M270.9,717.67h33.33M264.79,730.43l6.11,-12.76M248.26,627.82l13.92,-25.88M179.45,730.14h-8.99M179.45,736.64h-8.99M172.62,730.14l0,-4.33M172.62,736.64l0,4.33M172.62,730.14l0,6.5M250.32,689.54l0,-8.95M250.32,674.09l0,-25.99M221.57,674.09l0,-25.99M221.57,706.58l0,-25.99M250.32,834.83l0,-8.95M221.57,851.88l0,-25.99M250.32,834.83l0,-8.95M221.57,851.88l0,-25.99M250.32,851.88l0,-2.17M250.32,641.61l0,-21.34M221.57,641.61l0,-21.34M250.32,884.36l0,-2.17M221.57,884.36l0,-25.99M250.32,884.36l0,-25.99M248.26,665.89l13.92,-25.88M262.19,640.01h48.48M248.26,870.27l13.92,23.16M262.19,893.42h48.48M271.4,689.92l13.92,-25.88M285.33,664.04h72.14M287.59,862.7h73.37M273.67,839.54l13.92,23.16M552.82,582.5h-8.12M552.82,607.73h-8.12M552.82,626.95h-8.12M544.7,608.96l1.23,-1.23M544.7,610.68l2.96,-2.96M544.7,612.41l4.68,-4.68M544.7,614.13l6.4,-6.4M544.7,615.85l8.12,-8.12M544.7,617.58l8.12,-8.12M544.7,619.3l8.12,-8.12M544.7,621.02l8.12,-8.12M544.7,622.74l8.12,-8.12M544.7,624.47l8.12,-8.12M544.7,626.19l8.12,-8.12M545.66,626.95l7.16,-7.16M547.38,626.95l5.43,-5.43M549.11,626.95l3.71,-3.71M550.83,626.95l1.99,-1.99M552.55,626.95l0.27,-0.27M545.87,626.95l-1.17,-1.17M547.59,626.95l-2.89,-2.89M549.31,626.95l-4.62,-4.62M551.04,626.95l-6.34,-6.34M552.76,626.95l-8.06,-8.06M552.82,625.28l-8.12,-8.12M552.82,623.56l-8.12,-8.12M552.82,621.84l-8.12,-8.12M552.82,620.11l-8.12,-8.12M552.82,618.39l-8.12,-8.12M552.82,616.67l-8.12,-8.12M552.82,614.95l-7.22,-7.22M552.82,613.22l-5.5,-5.5M552.82,611.5l-3.77,-3.77M552.82,609.78l-2.05,-2.05M552.82,608.05l-0.33,-0.33M472.5,604.09l0.53,-0.63M474.68,616.38l0.59,-0.71M483.89,605.41l0.78,-0.93M476.75,628.83l0.78,-0.93M486.15,617.63l0.78,-0.93M495.54,606.43l0.78,-0.93M479,641.04l0.78,-0.93M488.4,629.85l0.78,-0.93M497.8,618.65l0.78,-0.93M507.19,607.45l0.63,-0.75M490.65,642.06l0.78,-0.93M500.05,630.87l0.78,-0.93M502.3,643.08l0.78,-0.93M553.8,611.53l0.78,-0.93M563.19,600.33l0.78,-0.93M556.05,623.74l0.78,-0.93M565.45,612.55l0.78,-0.93M558.3,635.96l0.78,-0.93M567.7,624.76l0.78,-0.93M621.45,605.42l0.78,-0.93M614.39,628.74l0.7,-0.83M623.7,617.64l0.78,-0.93M633.1,606.44l0.78,-0.93M616.56,641.06l0.78,-0.93M625.95,629.86l0.78,-0.93M635.35,618.66l0.78,-0.93M644.75,607.46l0.78,-0.93M628.21,642.08l0.78,-0.93M637.6,630.88l0.78,-0.93M647,619.68l0.78,-0.93M639.86,643.1l0.78,-0.93M649.26,631.9l0.78,-0.93M651.51,644.12l0.69,-0.82M563.19,600.33h0.97M621.45,605.42h0.97M633.1,606.44h0.97M644.75,607.46h0.97M472.5,604.41h0.72M483.89,605.41h0.97M495.54,606.43h0.97M507.19,607.45h0.63M553.8,611.53h0.97M565.45,612.55h0.97M623.7,617.64h0.97M635.35,618.66h0.97M647,619.68h0.97M486.15,617.63h0.97M497.8,618.65h0.97M556.05,623.74h0.97M567.7,624.76h0.97M614.39,628.85h0.89M625.95,629.86h0.97M637.6,630.88h0.97M649.26,631.9h0.97M476.75,628.83h0.97M488.4,629.85h0.97M500.05,630.87h0.97M558.3,635.96h0.97M616.56,641.06h0.97M628.21,642.08h0.97M639.86,643.1h0.97M651.51,644.12h0.69M479,641.04h0.97M490.65,642.06h0.97M502.3,643.08h0.97M479.97,641.13l-0.19,-1.02M477.72,628.91l-0.19,-1.02M475.41,616.38l-0.13,-0.71M473.21,604.47l-0.19,-1.02M491.62,642.15l-0.19,-1.02M489.37,629.93l-0.19,-1.02M487.12,617.71l-0.19,-1.02M484.86,605.49l-0.19,-1.02M503.28,643.17l-0.19,-1.02M501.02,630.95l-0.19,-1.02M498.77,618.73l-0.19,-1.02M496.51,606.51l-0.19,-1.02M559.27,636.05l-0.19,-1.02M557.02,623.83l-0.19,-1.02M554.77,611.61l-0.19,-1.02M568.67,624.85l-0.19,-1.02M566.42,612.63l-0.19,-1.02M564.16,600.41l-0.19,-1.02M617.53,641.14l-0.19,-1.02M615.27,628.92l-0.19,-1.02M629.18,642.16l-0.19,-1.02M626.93,629.94l-0.19,-1.02M624.67,617.73l-0.19,-1.02M622.42,605.51l-0.19,-1.02M640.83,643.18l-0.19,-1.02M638.58,630.96l-0.19,-1.02M636.32,618.75l-0.19,-1.02M634.07,606.53l-0.19,-1.02M650.23,631.98l-0.19,-1.02M647.97,619.76l-0.19,-1.02M645.72,607.55l-0.19,-1.02M472.5,612.43l0.56,-0.59M486.98,597.34l1.27,-1.32M473.95,631.67l1.27,-1.32M489.13,615.85l1.27,-1.32M504.31,600.02l1.27,-1.32M491.28,634.36l1.27,-1.32M506.47,618.54l1.27,-1.32M556.32,608.09l1.27,-1.32M558.47,626.6l1.27,-1.32M561.48,644.23l0.41,-0.43M623.51,600.33l1.27,-1.32M625.66,618.84l1.27,-1.32M640.84,603.02l1.27,-1.32M627.81,637.36l1.27,-1.32M643,621.53l1.27,-1.32M645.15,640.04l1.27,-1.32M475.39,631.89l-0.18,-1.54M473.24,613.38l-0.18,-1.54M492.73,634.58l-0.18,-1.54M490.57,616.07l-0.18,-1.54M488.42,597.56l-0.18,-1.54M507.82,618.02l-0.09,-0.8M505.76,600.25l-0.18,-1.54M561.94,644.23l-0.05,-0.43M559.92,626.83l-0.18,-1.54M557.76,608.31l-0.18,-1.54M629.26,637.58l-0.18,-1.54M627.11,619.07l-0.18,-1.54M624.95,600.56l-0.18,-1.54M646.59,640.27l-0.18,-1.54M644.44,621.76l-0.18,-1.54M642.29,603.25l-0.18,-1.54M623.51,600.33l1.44,0.22M640.84,603.02l1.44,0.22M486.98,597.34l1.44,0.22M504.31,600.02l1.44,0.22M556.32,608.09l1.44,0.22M625.66,618.84l1.44,0.22M643,621.53l1.44,0.22M472.5,613.27l0.74,0.12M489.13,615.85l1.44,0.22M506.47,618.54l1.36,0.21M558.47,626.6l1.44,0.22M627.81,637.36l1.44,0.22M645.15,640.04l1.44,0.22M473.95,631.67l1.44,0.22M491.28,634.36l1.44,0.22M474.54,606.66l1.14,-0.44M488.19,601.42l1.14,-0.44M501.83,596.18l1.14,-0.44M484.23,613.2l1.14,-0.44M497.88,607.96l1.14,-0.44M480.28,624.98l1.14,-0.44M493.93,619.74l1.14,-0.44M507.58,614.5h0.25M476.33,636.76l1.14,-0.44M489.98,631.52l1.14,-0.44M503.62,626.28l1.14,-0.44M558.22,605.33l1.14,-0.44M486.02,643.3l1.14,-0.44M499.67,638.06l1.14,-0.44M554.26,617.1l1.14,-0.44M567.91,611.87l1.14,-0.44M563.96,623.64l1.14,-0.44M618.55,602.69l1.14,-0.44M632.2,597.45l1.14,-0.44M560.01,635.42l1.14,-0.44M614.6,614.47l1.14,-0.44M628.25,609.23l1.14,-0.44M641.9,603.99l1.14,-0.44M624.3,621.01l1.14,-0.44M637.94,615.77l1.14,-0.44M651.59,610.53l0.61,-0.23M620.34,632.79l1.14,-0.44M633.99,627.55l1.14,-0.44M617.28,644.23h0.25M630.04,639.33l1.14,-0.44M643.69,634.09l1.14,-0.44M632.2,597.45l0.81,0.54M641.9,603.99l0.81,0.54M651.59,610.53l0.61,0.41M618.55,602.69l0.81,0.54M628.25,609.23l0.81,0.54M637.94,615.77l0.81,0.54M614.6,614.47l0.81,0.54M624.3,621.01l0.81,0.54M633.99,627.55l0.81,0.54M643.69,634.09l0.81,0.54M620.34,632.79l0.81,0.54M630.04,639.33l0.81,0.54M558.22,605.33l0.81,0.54M567.91,611.87l0.81,0.54M554.26,617.1l0.81,0.54M563.96,623.64l0.81,0.54M501.83,596.18l0.81,0.54M560.01,635.42l0.81,0.54M488.19,601.42l0.81,0.54M497.88,607.96l0.81,0.54M507.58,614.5l0.25,0.17M474.54,606.66l0.81,0.54M484.23,613.2l0.81,0.54M493.93,619.74l0.81,0.54M503.62,626.28l0.81,0.54M480.28,624.98l0.81,0.54M489.98,631.52l0.81,0.54M499.67,638.06l0.81,0.54M476.33,636.76l0.81,0.54M486.02,643.3l0.81,0.54M475.35,607.21l0.33,-0.98M477.14,637.3l0.33,-0.98M481.09,625.53l0.33,-0.98M485.04,613.75l0.33,-0.98M488.99,601.97l0.33,-0.98M486.83,643.84l0.33,-0.98M490.78,632.07l0.33,-0.98M494.74,620.29l0.33,-0.98M498.69,608.51l0.33,-0.98M502.64,596.73l0.33,-0.98M500.48,638.61l0.33,-0.98M504.43,626.83l0.33,-0.98M555.07,617.65l0.33,-0.98M559.02,605.87l0.33,-0.98M560.82,635.97l0.33,-0.98M564.77,624.19l0.33,-0.98M568.72,612.41l0.33,-0.98M615.41,615.01l0.33,-0.98M619.36,603.23l0.33,-0.98M621.15,633.33l0.33,-0.98M625.1,621.55l0.33,-0.98M629.06,609.77l0.33,-0.98M633.01,597.99l0.33,-0.98M630.85,639.87l0.33,-0.98M634.8,628.09l0.33,-0.98M638.75,616.31l0.33,-0.98M642.7,604.53l0.33,-0.98M644.5,634.63l0.33,-0.98M472.5,592.49l3.49,-3.49M472.94,595.5l6.5,-6.5M476.38,595.5l6.5,-6.5M479.83,595.5l6.5,-6.5M483.27,595.5l6.5,-6.5M486.72,595.5l6.5,-6.5M490.17,595.5l6.5,-6.5M493.61,595.5l6.5,-6.5M497.06,595.5l6.5,-6.5M500.5,595.5l6.5,-6.5M503.95,595.5l3.87,-3.87M507.39,595.5l0.43,-0.43M552.82,591.42l2.42,-2.42M552.82,594.87l5.87,-5.87M555.64,595.5l6.5,-6.5M559.08,595.5l6.5,-6.5M562.53,595.5l6.5,-6.5M565.97,595.5l3.42,-3.42M614.39,591.87l2.88,-2.88M614.39,595.32l6.32,-6.32M617.66,595.5l6.5,-6.5M621.1,595.5l6.5,-6.5M624.55,595.5l6.5,-6.5M628,595.5l6.5,-6.5M631.44,595.5l6.5,-6.5M634.89,595.5l6.5,-6.5M638.33,595.5l6.5,-6.5M641.78,595.5l6.5,-6.5M645.22,595.5l6.5,-6.5M648.67,595.5l3.53,-3.53M577.9,644.23h-33.21M571.41,650.72h-20.21M511.77,580.06l-18.42,-31.81M511.77,605.34l-18.64,-47.79M515.95,713.71L515.95,529.46M544.7,713.71L544.7,529.46M507.82,644.2l0,-61.7M544.7,622.38l0,5.01M515.95,621.89l0,5.5M472.5,623.66l0,26.78M515.95,644.23h-43.45M509.45,650.72h-12.99M504.66,672.11h-21.66M496.45,644.23l0,6.5M509.45,666.97l0,-16.24M551.19,666.97l0,-16.24M510.67,656.59l-6.01,15.52M515.95,666.97h-6.5M551.19,666.97h-6.5M515.95,644.23h28.75M511.39,614.83l-18.64,-47.79M502.7,617.81l-10.94,-40.6M508.21,589h-35.71M507.82,595.5h-35.33M472.5,581.9l0,34.49M472.5,623.66h-7.28M465.22,623.66l14.55,-7.28M472.5,616.38h7.28M492.75,567.04h-23.22M491.76,577.21h-23.22M507.82,608.85l1.12,-1.12M507.82,610.57l2.84,-2.84M507.82,612.3l4.57,-4.57M507.82,614.02l6.29,-6.29M507.82,615.74l8.01,-8.01M507.82,617.46l8.12,-8.12M507.82,619.19l8.12,-8.12M507.82,620.91l8.12,-8.12M507.82,622.63l8.12,-8.12M507.82,624.36l8.12,-8.12M507.82,626.08l8.12,-8.12M508.68,626.95l7.27,-7.27M510.4,626.95l5.55,-5.55M512.12,626.95l3.82,-3.82M513.85,626.95l2.1,-2.1M515.57,626.95l0.38,-0.38M509.15,626.95l-1.32,-1.32M510.87,626.95l-3.05,-3.05M512.59,626.95l-4.77,-4.77M514.32,626.95l-6.49,-6.49M515.95,626.86l-8.12,-8.12M515.95,625.13l-8.12,-8.12M515.95,623.41l-8.12,-8.12M515.95,621.69l-8.12,-8.12M515.95,619.96l-8.12,-8.12M515.95,618.24l-8.12,-8.12M515.95,616.52l-8.12,-8.12M515.95,614.8l-7.07,-7.07M515.95,613.07l-5.35,-5.35M515.95,611.35l-3.62,-3.62M515.95,609.63l-1.9,-1.9M515.95,607.9l-0.18,-0.18M507.82,626.95h8.12M507.82,607.73h8.12M507.82,582.5h8.12M514.38,509.9h-38.19M493.35,548.26h-36.85M493.13,557.54h-30.91M525.1,528.04l-10.71,-18.14M613.91,583.5l15.09,-29.73M606.65,713.71L606.65,529.46M577.9,713.71L577.9,529.46M631.51,574.46h22.57M658.29,584.34h19.19M652.2,616.38h7.28M644.92,623.66l14.55,-7.28M614.39,644.2l0,-61.7M569.39,644.2l0,-61.7M552.82,644.2l0,-61.7M652.2,623.66l0,26.78M606.65,622.38l0,5.01M577.9,621.89l0,5.5M577.9,644.23h28.75M571.41,666.97l0,-16.24M577.9,666.97h-6.5M613.15,666.97l0,-16.24M611.93,656.59l6.01,15.52M617.94,672.11h21.66M613.15,666.97h-6.5M652.2,644.23h-45.55M626.15,644.23l0,6.5M626.15,650.72h-12.99M569.78,607.95h8.12M569.78,627.17h8.12M569.78,609.72l1.77,-1.77M569.78,611.44l3.49,-3.49M569.78,613.17l5.21,-5.21M569.78,614.89l6.94,-6.94M569.78,616.61l8.12,-8.12M569.78,618.33l8.12,-8.12M569.78,620.06l8.12,-8.12M569.78,621.78l8.12,-8.12M569.78,623.5l8.12,-8.12M569.78,625.23l8.12,-8.12M569.78,626.95l8.12,-8.12M571.28,627.17l6.62,-6.62M573,627.17l4.9,-4.9M574.73,627.17l3.18,-3.18M576.45,627.17l1.45,-1.45M570.21,627.17l-0.43,-0.43M571.94,627.17l-2.15,-2.15M573.66,627.17l-3.88,-3.88M575.38,627.17l-5.6,-5.6M577.1,627.17l-7.32,-7.32M577.9,626.25l-8.12,-8.12M577.9,624.52l-8.12,-8.12M577.9,622.8l-8.12,-8.12M577.9,621.08l-8.12,-8.12M577.9,619.36l-8.12,-8.12M577.9,617.63l-8.12,-8.12M577.9,615.91l-7.96,-7.96M577.9,614.19l-6.24,-6.24M577.9,612.46l-4.51,-4.51M577.9,610.74l-2.79,-2.79M577.9,609.02l-1.07,-1.07M569.78,595.5h-16.96M569.78,582.73h8.12M569.78,589h-16.96M625.39,593l6.12,-18.54M652.2,583.92l0,32.47M647.24,612.44l11.05,-28.09M652.2,595.5h-37.42M614.78,607.95h-8.12M614.78,627.17h-8.12M606.65,609.03l1.08,-1.08M606.65,610.75l2.8,-2.8M606.65,612.47l4.52,-4.52M606.65,614.2l6.24,-6.24M606.65,615.92l7.97,-7.97M606.65,617.64l8.12,-8.12M606.65,619.36l8.12,-8.12M606.65,621.09l8.12,-8.12M606.65,622.81l8.12,-8.12M606.65,624.53l8.12,-8.12M606.65,626.26l8.12,-8.12M607.46,627.17l7.31,-7.31M609.18,627.17l5.59,-5.59M610.91,627.17l3.87,-3.87M612.63,627.17l2.15,-2.15M614.35,627.17l0.42,-0.42M608.12,627.17l-1.46,-1.46M609.84,627.17l-3.18,-3.18M611.56,627.17l-4.91,-4.91M613.28,627.17l-6.63,-6.63M614.78,626.94l-8.12,-8.12M614.78,625.22l-8.12,-8.12M614.78,623.49l-8.12,-8.12M614.78,621.77l-8.12,-8.12M614.78,620.05l-8.12,-8.12M614.78,618.33l-8.12,-8.12M614.78,616.6l-8.12,-8.12M614.78,614.88l-6.93,-6.93M614.78,613.16l-5.21,-5.21M614.78,611.43l-3.48,-3.48M614.78,609.71l-1.76,-1.76M652.2,623.66h-7.28M652.2,589h-37.42M614.78,582.73h-8.12M628.99,553.77h33.54M594.35,511.64h38.19M583.64,527.54l10.71,-15.9M201.9,715.18h-37.9M470.75,582.5h-9.92M470.75,589h-9.92M464.07,582.5l0,-20.45M464.07,582.5l0,6.5M1067.9,649.59l2.56,-2.37M1067.9,623.39l2.56,-2.37M1061.2,649.59l2.56,-2.37M1058.9,649.59l2.56,-2.37M1065.6,649.59l2.56,-2.37M1063.66,649.59l2.56,-2.37M1061.2,623.39l2.56,-2.37M1058.9,623.39l2.56,-2.37M1063.66,623.39l2.56,-2.37M1065.6,623.39l2.56,-2.37M1171.72,639.58l16.64,32.88M1108.09,657.91l0,9.2M1111.27,667.11l0,-9.2M1108.08,664.1l3.2,-2.43M1086.54,649.63l0,48.36M1132.56,649.63l0,48.36M1107.69,697.99h31.77M1078.6,697.99h21.93M1108.11,667.11h3.18M1108.08,667.12l3.2,-2.43M1108.08,665.59l3.2,-2.43M1110.18,667.11l1.1,-0.74M1100.51,698.01l2.78,-2.95M1103.29,695.03l2.13,6.71M1105.41,701.74l2.29,-3.76M1132.56,569.13l0,51.88M1086.54,569.13l0,51.88M1125.18,612.86l-2.73,3.61M1124.09,649.52l2.56,-2.37M1121.38,657.93l4.8,-3.63M1124.08,623.39l2.56,-2.37M1095.27,649.42l2.56,-2.37M1093.42,657.75l4.57,-3.45M1076.37,661.21l2.58,-1.95M1076.37,653.89l2.58,-1.95M1076.37,657.53l4.27,-3.22M1079.62,657.75l4.57,-3.45M1083.05,657.75l4.57,-3.45M1090.87,649.42l2.56,-2.37M1093.33,649.42l2.56,-2.37M1086.63,649.42l2.56,-2.37M1083.79,649.59l2.56,-2.37M1074.69,649.59l2.56,-2.37M1077.16,649.59l2.56,-2.37M1079.09,649.59l2.56,-2.37M1081.39,649.59l2.56,-2.37M1070.46,649.59l2.56,-2.37M1072.39,649.59l2.56,-2.37M1088.57,649.42l2.56,-2.37M1089.66,657.75l4.57,-3.45M1086.42,657.75l4.57,-3.45M1097.27,657.75l4.57,-3.45M1100,649.52l2.56,-2.37M1097.57,649.42l2.56,-2.37M1121.79,649.52l2.56,-2.37M1108.63,649.52l2.56,-2.37M1104.23,649.52l2.56,-2.37M1101.93,649.52l2.56,-2.37M1106.7,649.52l2.56,-2.37M1117.39,649.52l2.56,-2.37M1115.09,649.52l2.56,-2.37M1110.93,649.52l2.56,-2.37M1113.15,649.52l2.56,-2.37M1119.85,649.52l2.56,-2.37M1108.08,662.35l3.2,-2.43M1106.1,657.75l4.57,-3.45M1106.76,659.26h5.77M1108.08,660.54l1.77,-1.29M1108.57,651.85h2.27M1108.57,650.9h2.27M1108.63,649.81l4.42,4.51M1106.41,649.77l4.42,4.51M1101.84,657.75l4.57,-3.45M1101.93,651.81l2.34,2.47M1106.76,657.92l0,1.34M1108.57,649.81l0,2.04M1101.93,649.77l4.42,4.51M1104.03,649.77l4.42,4.51M1101.89,654.3l0,-4.56M1114.01,657.75l4.57,-3.45M1110.36,657.75l4.57,-3.45M1112.53,659.26l0,-1.34M1110.83,651.85l0,-2.04M1112.78,649.71l4.42,4.51M1114.91,649.83l2.34,2.47M1110.59,649.71l4.42,4.51M1117.3,654.3l0,-4.56M1117.97,657.75l4.57,-3.45M1099.21,612.86l-2.73,3.61M1095.14,623.39l2.56,-2.37M1076.35,603.39l0,-3.53M1086.53,604.19h-10.18M1095.96,612.86l-2.73,3.61M1092.72,612.86l-2.73,3.61M1090.74,623.39l2.56,-2.37M1093.21,623.39l2.56,-2.37M1086.51,623.39l2.56,-2.37M1083.79,623.39l2.56,-2.37M1074.69,623.39l2.56,-2.37M1077.16,623.39l2.56,-2.37M1079.09,623.39l2.56,-2.37M1081.39,623.39l2.56,-2.37M1070.46,623.39l2.56,-2.37M1072.39,623.39l2.56,-2.37M1088.44,623.39l2.56,-2.37M1089.47,612.86l-2.73,3.61M1108.57,618.84h2.27M1108.57,619.79h2.27M1108.57,620.87l0,-2.04M1110.83,618.84l0,2.04M1121.94,612.86l-2.73,3.61M1118.69,612.86l-2.73,3.61M1115.44,612.86l-2.73,3.61M1112.2,612.86l-2.73,3.61M1109.67,611.9l-3.45,4.57M1105.7,612.86l-2.73,3.61M1102.46,612.86l-2.73,3.61M1099.83,623.39l2.56,-2.37M1097.44,623.39l2.56,-2.37M1121.78,623.39l2.56,-2.37M1108.08,608.44l3.2,2.43M1108.08,610.25l1.77,1.29M1106.76,611.53h5.77M1108.08,603.67l3.2,2.43M1108.08,605.2l3.2,2.43M1108.08,606.69l3.2,2.43M1108.11,603.68h3.18M1108.09,612.88l0,-9.2M1106.76,612.87l0,-1.34M1111.27,603.68l0,9.2M1112.53,611.53l0,1.34M1110.18,603.68l1.1,0.74M1108.47,623.39l2.56,-2.37M1108.34,616.53l4.57,4.47M1106.3,616.53l4.57,4.47M1104.07,623.39l2.56,-2.37M1101.88,616.55l4.57,4.47M1104.16,616.58l4.57,4.47M1101.89,616.49l0,4.56M1101.77,623.39l2.56,-2.37M1101.88,619.03l2.19,1.99M1106.54,623.39l2.56,-2.37M1117.38,623.39l2.56,-2.37M1110.42,616.53l4.57,4.47M1115.08,623.39l2.56,-2.37M1112.61,616.53l4.57,4.47M1114.91,616.75l2.19,1.99M1110.77,623.39l2.56,-2.37M1113.14,623.39l2.56,-2.37M1117.3,616.49l0,4.56M1119.85,623.39l2.56,-2.37M1150.9,649.54l2.56,-2.37M1140.48,661.12l3,-2.27M1139.89,657.93l3.59,-2.71M1136.26,657.93l7.22,-5.45M1132.71,657.93l4.72,-3.57M1144.19,649.54l2.56,-2.37M1146.13,649.54l2.56,-2.37M1141.63,649.54l2.56,-2.37M1148.43,649.54l2.56,-2.37M1128.24,649.52l2.56,-2.37M1126.31,649.52l2.56,-2.37M1132.63,649.54l2.56,-2.37M1129.93,649.52l2.56,-2.37M1134.93,649.54l2.56,-2.37M1137.4,649.54l2.56,-2.37M1125.14,657.93l4.8,-3.63M1129.07,657.93l4.72,-3.57M1139.33,649.54l2.56,-2.37M1152.83,649.54l1.76,-1.64M1143.49,615.79l35.78,-18.76M1150.52,623.39l2.56,-2.37M1143.52,605.99l0,-3.53M1133.34,606.79h10.18M1131.68,612.86l-2.73,3.61M1128.43,612.86l-2.73,3.61M1148.05,623.39l2.56,-2.37M1141.26,623.39l2.56,-2.37M1143.82,623.39l2.56,-2.37M1145.75,623.39l2.56,-2.37M1127.73,623.39l2.56,-2.37M1125.59,623.39l2.56,-2.37M1132.25,623.39l2.56,-2.37M1134.56,623.39l2.56,-2.37M1137.02,623.39l2.56,-2.37M1130.03,623.39l2.56,-2.37M1138.96,623.39l2.56,-2.37M1152.45,623.39l2.14,-1.99M1112.21,569.13h26.15M1080.27,569.13h24.79M1109.93,572.94l-2.13,-6.71M1109.93,572.94l2.29,-3.76M1107.8,566.23l-2.78,2.95M1205.73,649.65l2.56,-2.37M1200.96,649.65l2.56,-2.37M1198.39,649.54l2.56,-2.37M1191.76,649.54l2.56,-2.37M1193.7,649.54l2.56,-2.37M1196,649.54l2.56,-2.37M1203.26,649.65l2.56,-2.37M1207.66,649.65l2.56,-2.37M1205.01,623.39l2.56,-2.37M1206.95,623.39l2.56,-2.37M1200.25,623.39l2.56,-2.37M1198.01,623.39l2.56,-2.37M1193.32,623.39l2.56,-2.37M1191.39,623.39l2.56,-2.37M1195.62,623.39l2.56,-2.37M1202.55,623.39l2.56,-2.37M888.73,565.73l0,51.88M842.71,565.73l0,51.88M842.71,646.23l0,48.36M888.73,646.23l0,48.36M863.87,694.6h31.77M834.78,694.6h21.93M856.69,694.62l2.78,-2.95M859.46,691.63l2.13,6.71M861.59,698.34l2.29,-3.76M899.66,612.4l35.78,-18.76M824.07,646.19l2.56,-2.37M824.07,619.99l2.56,-2.37M817.37,646.19l2.56,-2.37M815.07,646.19l2.56,-2.37M821.77,646.19l2.56,-2.37M819.84,646.19l2.56,-2.37M817.37,619.99l2.56,-2.37M815.07,619.99l2.56,-2.37M819.84,619.99l2.56,-2.37M821.77,619.99l2.56,-2.37M864.25,660.7l3.2,-2.43M881.36,609.46l-2.73,3.61M880.26,646.12l2.56,-2.37M877.56,654.53l4.8,-3.63M880.25,619.99l2.56,-2.37M851.44,646.02l2.56,-2.37M849.59,654.36l4.57,-3.45M832.54,657.81l2.58,-1.95M832.54,650.49l2.58,-1.95M832.54,654.13l4.27,-3.22M835.8,654.36l4.57,-3.45M839.22,654.36l4.57,-3.45M847.04,646.02l2.56,-2.37M849.51,646.02l2.56,-2.37M842.81,646.02l2.56,-2.37M839.96,646.19l2.56,-2.37M830.87,646.19l2.56,-2.37M833.33,646.19l2.56,-2.37M835.27,646.19l2.56,-2.37M837.57,646.19l2.56,-2.37M826.63,646.19l2.56,-2.37M828.57,646.19l2.56,-2.37M844.74,646.02l2.56,-2.37M845.84,654.36l4.57,-3.45M842.59,654.36l4.57,-3.45M853.45,654.36l4.57,-3.45M856.17,646.12l2.56,-2.37M853.74,646.02l2.56,-2.37M877.96,646.12l2.56,-2.37M864.8,646.12l2.56,-2.37M860.4,646.12l2.56,-2.37M858.1,646.12l2.56,-2.37M862.87,646.12l2.56,-2.37M873.56,646.12l2.56,-2.37M871.26,646.12l2.56,-2.37M867.1,646.12l2.56,-2.37M869.33,646.12l2.56,-2.37M876.03,646.12l2.56,-2.37M864.25,658.95l3.2,-2.43M862.27,654.36l4.57,-3.45M862.94,655.86h5.77M864.26,657.14l1.77,-1.29M864.74,648.45h2.27M864.74,647.5h2.27M864.81,646.41l4.42,4.51M862.58,646.37l4.42,4.51M858.01,654.36l4.57,-3.45M858.11,648.41l2.34,2.47M862.94,654.52l0,1.34M864.74,646.41l0,2.04M858.11,646.37l4.42,4.51M860.21,646.37l4.42,4.51M858.06,650.9l0,-4.56M870.19,654.36l4.57,-3.45M866.53,654.36l4.57,-3.45M868.7,655.86l0,-1.34M867.01,648.45l0,-2.04M868.95,646.32l4.42,4.51M871.09,646.43l2.34,2.47M866.76,646.32l4.42,4.51M873.48,650.9l0,-4.56M874.14,654.36l4.57,-3.45M855.38,609.46l-2.73,3.61M851.31,619.99l2.56,-2.37M832.52,600l0,-3.53M842.7,600.79h-10.18M852.14,609.46l-2.73,3.61M848.89,609.46l-2.73,3.61M846.91,619.99l2.56,-2.37M849.38,619.99l2.56,-2.37M842.68,619.99l2.56,-2.37M839.96,619.99l2.56,-2.37M830.87,619.99l2.56,-2.37M833.33,619.99l2.56,-2.37M835.27,619.99l2.56,-2.37M837.57,619.99l2.56,-2.37M826.63,619.99l2.56,-2.37M828.57,619.99l2.56,-2.37M844.61,619.99l2.56,-2.37M845.64,609.46l-2.73,3.61M864.74,615.44h2.27M864.74,616.39h2.27M864.74,617.48l0,-2.04M867.01,615.44l0,2.04M878.11,609.46l-2.73,3.61M874.86,609.46l-2.73,3.61M871.62,609.46l-2.73,3.61M868.37,609.46l-2.73,3.61M865.84,608.5l-3.45,4.57M861.88,609.46l-2.73,3.61M858.63,609.46l-2.73,3.61M856.01,619.99l2.56,-2.37M853.62,619.99l2.56,-2.37M877.95,619.99l2.56,-2.37M864.25,605.04l3.2,2.43M864.26,606.85l1.77,1.29M862.94,608.13h5.77M864.25,600.27l3.2,2.43M864.25,601.8l3.2,2.43M864.25,603.29l3.2,2.43M864.29,600.28h3.18M864.27,609.48l0,-9.2M862.94,609.47l0,-1.34M867.45,600.28l0,9.2M868.7,608.13l0,1.34M866.35,600.28l1.1,0.74M864.64,619.99l2.56,-2.37M864.51,613.13l4.57,4.47M862.47,613.13l4.57,4.47M860.24,619.99l2.56,-2.37M858.05,613.15l4.57,4.47M860.33,613.18l4.57,4.47M858.06,613.09l0,4.56M857.94,619.99l2.56,-2.37M858.05,615.63l2.19,1.99M862.71,619.99l2.56,-2.37M873.55,619.99l2.56,-2.37M866.59,613.13l4.57,4.47M871.25,619.99l2.56,-2.37M868.78,613.13l4.57,4.47M871.09,613.35l2.19,1.99M866.94,619.99l2.56,-2.37M869.32,619.99l2.56,-2.37M873.48,613.09l0,4.56M876.02,619.99l2.56,-2.37M907.07,646.14l2.56,-2.37M896.66,657.72l3,-2.27M896.06,654.53l3.59,-2.71M892.44,654.53l7.22,-5.45M888.89,654.53l4.72,-3.57M900.37,646.14l2.56,-2.37M902.3,646.14l2.56,-2.37M897.81,646.14l2.56,-2.37M904.6,646.14l2.56,-2.37M884.42,646.12l2.56,-2.37M882.48,646.12l2.56,-2.37M888.81,646.14l2.56,-2.37M886.1,646.12l2.56,-2.37M891.11,646.14l2.56,-2.37M893.57,646.14l2.56,-2.37M881.31,654.53l4.8,-3.63M885.24,654.53l4.72,-3.57M895.51,646.14l2.56,-2.37M909,646.14l1.76,-1.64M906.69,619.99l2.56,-2.37M899.7,602.59l0,-3.53M889.52,603.39h10.18M887.85,609.46l-2.73,3.61M884.6,609.46l-2.73,3.61M904.22,619.99l2.56,-2.37M897.43,619.99l2.56,-2.37M899.99,619.99l2.56,-2.37M901.92,619.99l2.56,-2.37M883.9,619.99l2.56,-2.37M881.76,619.99l2.56,-2.37M888.43,619.99l2.56,-2.37M890.73,619.99l2.56,-2.37M893.2,619.99l2.56,-2.37M886.2,619.99l2.56,-2.37M895.13,619.99l2.56,-2.37M908.62,619.99l2.14,-1.99M864.29,663.71h3.18M866.35,663.71l1.1,-0.74M864.27,654.51l0,9.2M867.45,663.71l0,-9.2M864.25,663.72l3.2,-2.43M864.25,662.19l3.2,-2.43M961.9,646.25l2.56,-2.37M957.14,646.25l2.56,-2.37M954.57,646.14l2.56,-2.37M947.94,646.14l2.56,-2.37M949.87,646.14l2.56,-2.37M952.17,646.14l2.56,-2.37M959.44,646.25l2.56,-2.37M963.84,646.25l2.56,-2.37M961.19,619.99l2.56,-2.37M963.12,619.99l2.56,-2.37M956.42,619.99l2.56,-2.37M954.19,619.99l2.56,-2.37M949.49,619.99l2.56,-2.37M947.56,619.99l2.56,-2.37M951.79,619.99l2.56,-2.37M958.72,619.99l2.56,-2.37M927.89,636.18l16.64,32.88M868.38,565.73h26.15M836.44,565.73h24.79M866.1,569.54l-2.13,-6.71M866.1,569.54l2.29,-3.76M863.97,562.83l-2.78,2.95M761.37,619.99l2.56,-2.37M763.67,619.99l2.56,-2.37M766.14,619.99l2.56,-2.37M768.07,619.99l2.56,-2.37M770.37,619.99l2.56,-2.37M774.87,619.99l2.56,-2.37M772.93,619.99l2.56,-2.37M759.27,619.99l2.56,-2.37M756.97,619.99l2.56,-2.37M755.25,619.64l2.18,-2.02M755.35,645.65l2.18,-2.02M757.07,646l2.56,-2.37M759.37,646l2.56,-2.37M773.03,646l2.56,-2.37M774.96,646l2.56,-2.37M770.47,646l2.56,-2.37M768.17,646l2.56,-2.37M766.24,646l2.56,-2.37M763.77,646l2.56,-2.37M761.47,646l2.56,-2.37M795.78,636.18l-17.08,32.88" />
<path id="cv_52" class="sClr_black" stroke-width="0.4" d="M221.57,905.54A 9.06101 9.06101 0 0 0 235.94 905.54M221.57,905.54A 9.06101 9.06101 0 0 0 235.94 905.54M235.94,905.54A 9.06101 9.06101 0 0 0 250.32 905.54M250.32,905.54A 9.06101 9.06101 0 0 0 235.94 905.54M221.57,620.27A 9.06101 9.06101 0 0 0 235.94 620.27M235.94,620.27A 9.06101 9.06101 0 0 0 221.57 620.27M235.94,620.27A 9.06101 9.06101 0 0 0 250.32 620.27M235.94,620.27A 9.06101 9.06101 0 0 0 250.32 620.27" /><path id="cv_53" class="sClr_black" stroke-width="0.6" d="M294.33,697.92A 3.688 3.688 0 0 0 294.33 691.61M294.33,691.61A 3.688 3.688 0 0 0 294.33 697.92M294.33,691.61A 4.5305 4.5305 0 0 0 294.88 684.92M294.33,836.91A 4.5305 4.5305 0 0 0 294.88 830.22M294.33,836.91A 3.688 3.688 0 0 0 294.33 843.21M294.33,843.21A 3.688 3.688 0 0 0 294.33 836.91M560.53,589A 19.535 19.535 0 0 0 544.7 573.25M515.95,713.71A 9.06101 9.06101 0 0 0 530.32 713.71M515.95,713.71A 9.06101 9.06101 0 0 0 530.32 713.71M544.7,713.71A 9.06101 9.06101 0 0 0 530.32 713.71M530.32,713.71A 9.06101 9.06101 0 0 0 544.7 713.71M515.95,573.25A 19.535 19.535 0 0 0 500.11 589M530.32,529.46A 9.06101 9.06101 0 0 0 515.95 529.46M515.95,529.45A 9.06101 9.06101 0 0 0 530.32 529.46M530.32,529.45A 9.06101 9.06101 0 0 0 544.7 529.46M530.32,529.45A 9.06101 9.06101 0 0 0 544.7 529.46M606.65,713.71A 9.06101 9.06101 0 0 0 592.28 713.71M592.28,713.71A 9.06101 9.06101 0 0 0 606.65 713.71M577.9,713.71A 9.06101 9.06101 0 0 0 592.28 713.71M577.9,713.71A 9.06101 9.06101 0 0 0 592.28 713.71M577.9,573.47A 19.535 19.535 0 0 0 562.07 589.22M622.49,589.22A 19.535 19.535 0 0 0 606.65 573.47M592.28,529.45A 9.06101 9.06101 0 0 0 606.65 529.46M592.28,529.45A 9.06101 9.06101 0 0 0 606.65 529.46M592.28,529.46A 9.06101 9.06101 0 0 0 577.9 529.46M577.9,529.45A 9.06101 9.06101 0 0 0 592.28 529.46M1057.56,634.93A 9.37732 9.37732 0 0 0 1056.5 621.02M1059.19,649.6A 21.1958 21.1958 0 0 0 1057.75 634.93M1057.5,634.96A 9.66289 9.66289 0 0 0 1059.35 649.7M1209.99,620.99A 9.6309 9.6309 0 0 0 1211.16 635.01M1211.11,634.93A 9.37732 9.37732 0 0 0 1210.06 621.02M1211.06,634.96A 9.66289 9.66289 0 0 0 1212.91 649.7M754.37,631.53A 9.37732 9.37732 0 0 0 753.3 617.61M755.99,646.24A 21.1958 21.1958 0 0 0 754.56 631.53M754.32,631.56A 9.66289 9.66289 0 0 0 756.16 646.3M966.16,617.59A 9.6309 9.6309 0 0 0 967.33 631.61M967.29,631.53A 9.37732 9.37732 0 0 0 966.23 617.62M967.24,631.56A 9.66289 9.66289 0 0 0 969.08 646.3" />
<g style="font-family:'arial'; stroke:none; fill:green;" >
<g font-size="10.5445" >
<text id="cv_54" x="1049.78" y="570.75" >&#200;&#x02F7;&#192;&#199;&#248;&#205;&#226;</text>
<text id="cv_55" x="1067.99" y="587.52" >&#210;&#xDEF7;</text>
<text id="cv_56" x="1060.56" y="672.19" >&#181;&#178;&#x0226;</text>
<text id="cv_57" x="1050.2" y="607.9" >&#184;&#x05B9;&#220;</text>
<text id="cv_58" x="1142.5" y="672.8" >&#x02AF;&#195;&#222;&#x02EE;&#196;&#168;&#164;</text>
<text id="cv_59" x="1142.13" y="592.17" >&#211;&#205;&#194;&#168;&#166;</text>
<text id="cv_60" x="1148.71" y="571.57" >&#200;&#x02F7;&#192;&#199;&#248;&#196;&#218;</text>
<text id="cv_61" x="1181.18" y="595.14" >&#184;&#214;&#208;&#x0537;&#192;&#x02EE;&#204;&#x05F9;&#220;</text>
<text id="cv_62" x="937.35" y="591.74" >&#184;&#214;&#208;&#x0537;&#192;&#x02EE;&#204;&#x05F9;&#220;</text>
<text id="cv_63" x="806.38" y="604.5" >&#184;&#x05B9;&#220;</text>
<text id="cv_64" x="816.73" y="668.79" >&#181;&#178;&#x0226;</text>
<text id="cv_65" x="898.67" y="669.4" >&#x02AF;&#195;&#222;&#x02EE;&#196;&#168;&#164;</text>
<text id="cv_66" x="798.94" y="567.35" >&#181;&#218;&#x04BB;&#161;&#164;;&#161;&#232;&#199;&#248;</text>
<text id="cv_67" x="824.16" y="584.12" >&#210;&#xDEF7;</text>
<text id="cv_68" x="898.31" y="588.77" >&#211;&#205;&#194;&#168;&#166;</text>
<text id="cv_69" x="898.79" y="567.35" >&#181;&#x06B6;&#x07B7;;&#161;&#232;&#199;&#248;</text>
</g>
<g font-size="14.0593" >
<text id="cv_70" x="1212.29" y="671.09" >&#161;&#164;&#161;&#236; &#195;&#197;</text>
<text id="cv_71" x="968.47" y="667.7" >&#161;&#164;&#161;&#236; &#195;&#197;</text>
<text id="cv_72" x="735.37" y="667.7" >&#161;&#164;&#161;&#236; &#195;&#197;</text>
</g>
</g>
<g style="font-family:'complex'; stroke:none; fill:green;" >
<g font-size="9.95866" >
<text id="cv_73" x="1191.2" y="682.98" >(&#191;&#185;f&#178;&#187;&#167;&#179;&#211;&#218;1MPa)</text>
<text id="cv_74" x="947.38" y="679.58" >(&#191;&#185;f&#178;&#187;&#167;&#179;&#211;&#218;1MPa)</text>
<text id="cv_75" x="714.28" y="679.58" >(&#191;&#185;f&#178;&#187;&#167;&#179;&#211;&#218;1MPa)</text>
</g>
</g>
<g style="font-family:'arial'; stroke:none; fill:green;" >
<g font-size="15.184" >
<text id="cv_76" x="1220.25" y="639.25" >&#202;&#210;&#196;&#x06B9;&#x0736;&#206;</text>
</g>
</g>
<g style="font-family:'complex'; stroke:none; fill:green;" >
<g font-size="13.7836" >
<text id="cv_77" x="802.02" y="832.26" >(&#181;&#161;&#193;&#198;p&#168;&#185;(&#186;&#xCD64;&#187;&#168;&#176;&#192;&#x0135;&#161;&#193;&#161;&#193;&#211;&#211;&#205;).</text>
<text id="cv_78" x="792.56" y="776.56" >2.&#161;&#164;&#192;&#x02EE;&#204;&#x05F9;&#220;&#x03AA;&#185;&#x06BC;&#x04BD;&#161;&#167;&#214;&#x07B1;&#168;&#186;&#x05FC;&#201;&#x023C;&#198;&#x037C;&#188;&#175; S312&#214;&#167;&#214;&#196;</text>
<text id="cv_79" x="790.39" y="812.97" >3.&#210;&#xDEF7;&#188;&#161;&#227;&#184;&#214;&#204;&#x05F9;&#x073C;&#x04F9;&#161;&#232;&#205;&#x02B3;&#x027A;&#168;&#174;,&#212;&#218;&#198;&#228;&#205;&#161;&#192;&#x06BE;&#168;&#180;&#x02E2;&#181;&#161;&#193;&#198;&#168;&#162;&#x04BB;&#161;&#192;&#168;&#166;</text>
<text id="cv_80" x="779.19" y="739.11" >&#x05E2;:1.&#180;&#203;&#x037C;&#x03AA;&#207;&#x06F7;&#192;.&#184;&#248;&#197;&#197;&#x02EE;&#185;&#x0735;4&#169;&#x053D;&#200;&#x02F7;5&#216;&#207;&#194;&#202;&#x04B7;;&#161;&#232;&#205;&#226;&#x01FD;,</text>
<text id="cv_81" x="805.33" y="757.31" >&#161;&#164;;&#161;&#232;&#184;&#244;&#x01FD;,&#161;&#164;;&#161;&#232;&#182;&#165;&#161;&#227;&#229;&#x02B1;&#204;&#x05F9;&#220;&#x0524;&#194;&#x047A;&#x0379;&#x0735;0&#178;&#x05F0;&#180;&#166;&#192;&#168;&#170;&#x037C;.</text>
<text id="cv_82" x="804.32" y="795.81" >&#184;&#213;&#208;&#x0537;&#192;&#x02EE;&#204;&#x05F9;&#220;.</text>
</g>
</g>
<path id="cv_83" class="sClr_green" stroke-width="0.4" d="M1083.1,589.52h-16.23" /><path id="cv_84" class="sClr_green sLt_DgnDashDot " stroke-width="0.4" d="M1043.41,634.41H1219.88" /><path id="cv_85" class="sClr_green" stroke-width="0.4" d="M1075.81,620.96l-11.36,-11.26M1076.87,674.74h-16.15M1064.45,609.7h-13.55M1105.3,667.16h-6.76M1102.88,667.16l0,-9.26M1109.68,657.21l0.01,11.96M1108.57,651.85l-31.7,22.9M1124.96,652.09l15.63,22.38M1140.59,674.47h29.15M1249.11,672.46h-60.76M1223.03,597.03h-43.76M1111.28,598.52l-0.01,-10.81M1108.15,598.53l-0.01,-10.81M1111.27,592.05h-3.13M1116.21,617.98l22.85,-23.5M1102.91,603.6h-6.76M1100.49,603.6l0,9.26M1108.26,603.75l-25.17,-14.23M1109.64,600.28l0.01,16.73M1139.06,594.48h19.21M867.45,595.13l-0.01,-10.81M864.32,595.13l-0.01,-10.81M867.45,588.65h-3.13M737.53,632.01H976.05M896.76,671.07h29.15M831.98,617.56l-11.36,-11.26M820.63,606.3h-13.55M872.39,614.58l22.85,-23.5M859.08,600.2h-6.76M856.66,600.2l0,9.26M865.81,596.88l0.01,16.73M895.23,591.08h19.21M833.04,671.35h-16.15M861.48,663.76h-6.76M859.05,663.76l0,-9.26M865.85,653.81l0.01,11.96M864.74,648.45l-31.7,22.9M881.13,648.69l15.63,22.38M979.2,593.63h-43.76M1005.29,669.06h-60.76M839.27,586.12h-16.23M778.7,669.06h-67.27" />
<path id="cv_86" class="sClr_yellow" stroke-width="0.4" d="M1059.24,649.63h95.35M1059.46,647.02h95.13M1056.73,621.01h97.86M1058.88,623.47h95.71M1156.08,649.63h33.42M1156.08,621.01h33.42M1078.94,657.93h61.54M1078.94,654.37h61.54M1078.94,616.42h61.54M1078.94,612.86h61.54M1076.37,650.76l0,11.04M1078.94,650.76l0,11.04M1076.37,650.76h2.58M1076.37,661.8h2.58M1076.37,619.72h2.58M1076.37,609.58h2.58M1076.37,609.58l0,10.14M1078.94,609.58l0,10.14M1140.48,650.76h3M1143.49,650.76l0,11.04M1140.48,650.76l0,11.04M1140.48,661.8h3M1140.48,619.72h3M1140.48,609.58h3M1143.49,609.58l0,10.14M1140.48,609.58l0,10.14M1191.13,647.02h19.64M1191.13,649.63h21.67M1191.13,623.47h17.23M1191.13,621.01h19.15M912.25,646.23h33.42M912.25,617.61h33.42M755.99,646.23H910.76M756.51,643.62h21.01M753.3,617.61H910.76M755.54,620.07h21.98M835.12,654.53h61.54M835.12,650.97h61.54M835.12,613.02h61.54M835.12,609.46h61.54M832.54,647.36l0,11.04M835.12,647.36l0,11.04M832.54,647.36h2.58M832.54,658.4h2.58M832.54,616.32h2.58M832.54,606.18h2.58M832.54,606.18l0,10.14M835.12,606.18l0,10.14M896.66,647.36h3M899.66,647.36l0,11.04M896.66,647.36l0,11.04M896.66,658.4h3M896.66,616.32h3M896.66,606.18h3M899.66,606.18l0,10.14M896.66,606.18l0,10.14M947.31,643.62h19.64M947.31,646.23h21.67M947.31,620.07h17.23M947.31,617.61h19.15M814.07,620.07h96.7M814.07,643.62h96.7" />
<path id="cv_87" class="sClr_red" stroke-width="0.4" d="M1156.08,621.01l33.46,28.64M1189.54,620.98l-33.46,28.66M1156.08,616.67l0,37.21M1154.59,616.67l0,37.21M1153.42,651.43h4.01M1153.42,619.05h4.01M1189.5,616.67l0,37.21M1191.13,616.67l0,37.21M1188.35,651.43h4.01M1188.2,619.05h4.01M912.25,617.61l33.46,28.64M945.71,617.58l-33.46,28.66M912.25,613.27l0,37.21M910.76,613.27l0,37.21M909.59,648.03h4.01M909.59,615.65h4.01M945.67,613.27l0,37.21M947.31,613.27l0,37.21M944.53,648.03h4.01M944.38,615.65h4.01M777.52,613.27l0,37.21M779.01,613.27l0,37.21M776.35,615.65h4.01M779.01,617.61l33.46,28.64M776.35,648.03h4.01M812.47,617.58l-33.46,28.66M811.29,648.03h4.01M814.07,613.27l0,37.21M812.43,613.27l0,37.21M811.14,615.65h4.01" />
<g style="font-family:'Arial'; stroke:none; fill:rgb(127,0,0);" >
<g font-size="112.5" >
<text id="cv_88" x="52.46" y="888.32" transform="rotate(330 52.46 888.32) translate(52.46 -888.32) scale(1 1) translate(-52.46 888.32) ">For Demonstration Purposes Only</text>
<text id="cv_89" x="302.46" y="888.32" transform="rotate(330 302.46 888.32) translate(302.46 -888.32) scale(1 1) translate(-302.46 888.32) ">Tailor Made Software, Ltd</text>
</g>
</g>
<g class="_OBLIQUE" id="Block__OBLIQUE_1">
<path id="cv_90" class="sClr_black sLt_DgnDashDot " stroke-width="0.4" d="M170.46,727.98l4.33,4.33" />
</g>
<g class="_OBLIQUE" id="Block__OBLIQUE_2">
<path id="cv_91" class="sClr_black sLt_DgnDashDot " stroke-width="0.4" d="M174.79,738.8l-4.33,-4.33" />
</g>
<g class="_OBLIQUE" id="Block__OBLIQUE_3">
<path id="cv_92" class="sClr_black sLt_DgnDashDot " stroke-width="0.4" d="M460.83,579.25l6.5,6.5" />
</g>
<g class="_OBLIQUE" id="Block__OBLIQUE_4">
<path id="cv_93" class="sClr_black sLt_DgnDashDot " stroke-width="0.4" d="M467.32,592.25l-6.5,-6.5" /><path id="cv_94" class="sClr_black" stroke-width="0.4" d="M465.46,607.73h-6.34M465.47,626.95h-6.34M462.38,607.73l0,19.22" />
</g>
<g class="_OBLIQUE" id="Block__OBLIQUE_5">
<path id="cv_95" class="sClr_black" stroke-width="0.4" d="M459.13,604.48l6.5,6.5" />
</g>
<g class="_OBLIQUE" id="Block__OBLIQUE_6">
<path id="cv_96" class="sClr_black" stroke-width="0.4" d="M465.62,630.2l-6.5,-6.5M666.21,595.41h11.25M666.21,644.23h11.25M674.21,595.09l0,49.46" />
</g>
<g class="_OBLIQUE" id="Block__OBLIQUE_7">
<path id="cv_97" class="sClr_black" stroke-width="0.4" d="M677.45,598.66l-6.5,-6.5" />
</g>
<g class="_OBLIQUE" id="Block__OBLIQUE_8">
<path id="cv_98" class="sClr_black" stroke-width="0.4" d="M670.96,640.98l6.5,6.5" />
</g>
<g class="_DIMX" id="Block__DIMX_9">
<path id="cv_99" class="sClr_black" stroke-width="0.4" d="M1102.88,669.76l0,-5.2M1104.09,668.38l-2.43,-2.43" />
</g>
<g class="_DIMX" id="Block__DIMX_10">
<path id="cv_100" class="sClr_black" stroke-width="0.4" d="M1102.88,655.3l0,5.2M1101.67,656.69l2.43,2.43" />
</g>
<g class="_DIMX" id="Block__DIMX_11">
<path id="cv_101" class="sClr_black" stroke-width="0.4" d="M1113.87,592.05h-5.2M1112.49,590.84l-2.42,2.43" />
</g>
<g class="_DIMX" id="Block__DIMX_12">
<path id="cv_102" class="sClr_black" stroke-width="0.4" d="M1105.55,592.05h5.2M1106.93,593.27l2.42,-2.43" />
</g>
<g class="_DIMX" id="Block__DIMX_13">
<path id="cv_103" class="sClr_black" stroke-width="0.4" d="M1100.49,601l0,5.2M1099.27,602.38l2.43,2.43" />
</g>
<g class="_DIMX" id="Block__DIMX_14">
<path id="cv_104" class="sClr_black" stroke-width="0.4" d="M1100.49,615.45l0,-5.2M1101.7,614.07l-2.43,-2.43" />
</g>
<g class="_DIMX" id="Block__DIMX_15">
<path id="cv_105" class="sClr_black" stroke-width="0.4" d="M1089.13,604.19h-5.2M1087.74,602.98l-2.43,2.43" />
</g>
<g class="_DIMX" id="Block__DIMX_16">
<path id="cv_106" class="sClr_black" stroke-width="0.4" d="M1073.75,604.19h5.2M1075.13,605.41l2.43,-2.43M1078.94,618.78l-0.71,0.94M1077.08,609.58l-0.71,0.94M1078.94,611.19l-2.58,3.41M1080.62,612.86l-4.25,5.63M1083.41,612.86l-2.69,3.57M1086.32,612.86l-2.73,3.61" />
</g>
<g class="_DIMX" id="Block__DIMX_17">
<path id="cv_107" class="sClr_black" stroke-width="0.4" d="M1130.74,606.79h5.2M1132.13,608l2.43,-2.43" />
</g>
<g class="_DIMX" id="Block__DIMX_18">
<path id="cv_108" class="sClr_black" stroke-width="0.4" d="M1146.12,606.79h-5.2M1144.74,605.58l-2.43,2.43M1139.79,612.86l-2.73,3.61M1143.49,615.79l-2.96,3.92M1143.49,611.94l-3.42,4.52M1142.27,609.58l-1.78,2.36M1137.11,612.86l-2.73,3.61M1134.46,612.86l-2.73,3.61" />
</g>
<g class="_DIMX" id="Block__DIMX_19">
<path id="cv_109" class="sClr_black" stroke-width="0.4" d="M870.05,588.65h-5.2M868.66,587.44l-2.42,2.43" />
</g>
<g class="_DIMX" id="Block__DIMX_20">
<path id="cv_110" class="sClr_black" stroke-width="0.4" d="M861.72,588.65h5.2M863.11,589.87l2.42,-2.43M864.44,600.35l-25.17,-14.23" />
</g>
<g class="_DIMX" id="Block__DIMX_21">
<path id="cv_111" class="sClr_black" stroke-width="0.4" d="M856.66,597.6l0,5.2M855.45,598.98l2.43,2.43" />
</g>
<g class="_DIMX" id="Block__DIMX_22">
<path id="cv_112" class="sClr_black" stroke-width="0.4" d="M856.66,612.06l0,-5.2M857.87,610.67l-2.43,-2.43" />
</g>
<g class="_DIMX" id="Block__DIMX_23">
<path id="cv_113" class="sClr_black" stroke-width="0.4" d="M845.3,600.79h-5.2M843.91,599.58l-2.43,2.43" />
</g>
<g class="_DIMX" id="Block__DIMX_24">
<path id="cv_114" class="sClr_black" stroke-width="0.4" d="M829.92,600.79h5.2M831.31,602.01l2.43,-2.43M835.12,615.38l-0.71,0.94M833.25,606.18l-0.71,0.94M835.12,607.79l-2.58,3.41M836.79,609.46l-4.25,5.63M839.59,609.46l-2.69,3.57M842.5,609.46l-2.73,3.61" />
</g>
<g class="_DIMX" id="Block__DIMX_25">
<path id="cv_115" class="sClr_black" stroke-width="0.4" d="M886.92,603.39h5.2M888.3,604.6l2.43,-2.43" />
</g>
<g class="_DIMX" id="Block__DIMX_26">
<path id="cv_116" class="sClr_black" stroke-width="0.4" d="M902.29,603.39h-5.2M900.91,602.18l-2.43,2.43M895.97,609.46l-2.73,3.61M899.66,612.4l-2.96,3.92M899.66,608.54l-3.42,4.52M898.44,606.18l-1.78,2.36M893.28,609.46l-2.73,3.61M890.63,609.46l-2.73,3.61" />
</g>
<g class="_DIMX" id="Block__DIMX_27">
<path id="cv_117" class="sClr_black" stroke-width="0.4" d="M859.05,666.36l0,-5.2M860.27,664.98l-2.43,-2.43" />
</g>
<g class="_DIMX" id="Block__DIMX_28">
<path id="cv_118" class="sClr_black" stroke-width="0.4" d="M859.05,651.9l0,5.2M857.84,653.29l2.43,2.43" />
</g>
<g class="\u7F51\u6613\u6696\u901A\u56FE\u7B7E_new" id="Block_\u7F51\u6613\u6696\u901A\u56FE\u7B7E_new_29">
<g style="font-family:'simsun'; stroke:none; fill:green;" >
<g font-size="1.21124e-06" >
<text id="cv_119" x="353.35" y="302.32" >&#161;&#192;&#x0F2D;&#178;&#191;&#163;&#186;ivpinfo@service.netease.com</text>
</g>
<g font-size="1.36265e-06" >
<text id="cv_120" x="353.35" y="302.32" >&#214;&#167;&#219;&#168;&#178;&#x016F;&#x0368;&#208;&#208;&#x04B5;&#205;&#248;&#194;&#x01FC;&#210;&#x0530;&#163;&#187;&#210;&#168;&#176;&#x03AA;&#x05E8;&#x04B5;&#163;&#172;&#203;&#168;&#180;&#210;&#212;&#205;&#168;&#186;&#195;&#192;</text>
</g>
<g font-size="2.37359e-06" >
<text id="cv_121" x="353.35" y="302.32" >&#205;&#248;&#210;&#161;&#193;  NETEASE </text>
</g>
<g font-size="2.96699e-06" >
<text id="cv_122" x="353.35" y="302.32" >=</text>
<text id="cv_123" x="353.35" y="302.32" >=</text>
</g>
</g>
<g style="font-family:'simsun'; stroke:none; fill:red;" >
<g font-size="1.10223e-06" >
<text id="cv_124" x="353.35" y="302.32" >&#161;&#192;&#190;&#x037C;&#x05BD;&#211;&#x027A;&#x01B3;&#189;ICAD&#200;&#x037C;&#254;&#204;&#x1E69;&#188;&#188;&#202;&#245;&#x05A7;&#179;&#214;</text>
</g>
<g font-size="1.68228e-06" >
<text id="cv_125" x="353.35" y="302.32" >&#205;&#248;&#210;&#161;&#193;  &#x016F;&#x0368;   co.163.com</text>
</g>
</g>
</g>
</g>
<g id="layer_HZ" class="layer_HZ"  cvjs:layerName="HZ" cvjs:status="ON">
<g style="font-family:'romant'; stroke:none; fill:green;" >
<g font-size="24.8105" >
<text id="cv_126" x="434.79" y="911.28" >&#197;&#197;&#x02EE;b&#185;&#x0734;&#169;&#x053D;&#165;&#178;&#x3C32;&#x05F0;&#180;&#168;&#174;&#209;&#168;&#180;&#x037C;</text>
<text id="cv_127" x="1019.46" y="785.64" >&#207;&#x06F7;&#192;,&#184;&#248;&#x02EE;&#185;&#x0735;4&#169;&#161;&#164;;&#161;&#232;&#x01FD;&#180;&#168;&#174;&#209;&#168;&#180;&#x037C;</text>
</g>
<g font-size="13.2323" >
<text id="cv_128" x="455.58" y="846.82" >&#161;&#193;&#x023B;&#240;&#x0226; </text>
<text id="cv_129" x="438.83" y="830" >2.&#195;&#x05F7;&#168;&#174;b&#185;&#x0739;&#x073E;&#182;&#180;&#168;&#174;&#211;&#x06BB;&#x04B5;&#200;&#211;&#218;100mm&#x02B1;,&#212;&#218;&#165;&#161;&#227;&#x0179;&#x1D29;&#178;&#191;&#166;&#203;&#x04E6;&#201;&#168;&#168;&#214;&#195; </text>
<text id="cv_130" x="449.18" y="775.25" >&#x05A7;&#x0123;,&#178;&#162;&#x04E6;&#178;&#201;&#211;&#195;C20&#x03F8;&#x02AF;&#187;&#168;&#172;&#196;&#253;&#205;w&#x05B6;&#x07B4;&#166;&#205;&#189;&#181;&#161;&#164;&#195;&#220;&#x02B5; &#189;&#189;&#214;&#x07BD;&#168;&#162;&#202;&#x063A;&#168;&#174;,</text>
<text id="cv_131" x="450.89" y="811.9" >&#191;&#x0376;&#x0232;&#187;&#167;&#179;&#211;&#218;30mm&#181;&#196;&#161;&#193;&#168;&#168;&#x02EE;&#x0226;</text>
<text id="cv_132" x="450.03" y="792.96" >&#189;z&#207;&#213;&#210;&#x01BD;&#178;&#251;&#168;&#176;&#195;&#x01B2;&#227;&#x02A9;&#185;&#161;&#232;,&#212;&#x06B9;&#x0735;&#192;&#214;&#220;&#166;&#182;&#x04E6;&#214;&#x07B3;&#x027A;&#x0476;&#x0232;&#187;&#167;&#179;&#211;&#218;20mm,</text>
<text id="cv_133" x="420.84" y="758.42" >&#x05E2;&#163;&#186;1.&#185;&#x0735;4&#169;&#x053D;&#165;&#161;&#227;&#225;&#195;&#x03AA;&#185;&#x0336;&#161;&#167;&#x05A7;&#179;&#167;&#214;&#227;&#x02B1;,&#185;&#x0735;0&#178;&#x05F0;&#189;&#168;&#162;&#202;&#248;&#x04E6;&#197;&#x013A;&#207;&#205;}&#161;&#167;&#189;&#248;&#208;&#208;</text>
<text id="cv_134" x="438.83" y="861.62" >3.&#184;&#214;&#214;&#x01B7;&#192;&#x02EE;&#204;&#x05F9;&#x0735;&#196;&#161;&#193;&#246;&#161;&#164;&#161;&#167;&#188;&#251;&#x037C;&#188;&#175;S312&#161;&#163; </text>
</g>
<g font-size="16.5403" >
<text id="cv_135" x="178.87" y="812.17" >&#161;&#193;&#x023B;&#240;&#x0226;</text>
<text id="cv_136" x="114.54" y="696.79" >&#x03F8;&#x02AF;&#187;&#168;&#172;&#196;&#253;&#205;v&#x07B4;&#206;&#x01F6;&#161;&#164;&#168;&#172;</text>
<text id="cv_137" x="307.12" y="746.34" >&#187;&#168;&#172;&#196;&#253;&#205;&#193;&#165;&#161;&#227;&#229;</text>
<text id="cv_138" x="303.74" y="600.7" >b&#185;&#220;</text>
<text id="cv_139" x="272.16" y="716.59" >&#161;&#193;&#168;&#168;&#x02EE;&#x0226;</text>
<text id="cv_140" x="262.19" y="638.77" >b&#185;&#220;&#201;&#168;&#172;&#203;&#x057D;&#218;</text>
<text id="cv_141" x="262.19" y="892.18" >b&#185;&#220;&#201;&#168;&#172;&#203;&#x057D;&#218;</text>
<text id="cv_142" x="326.88" y="662.8" >&#186;&#168;&#162;&#x05A7;&#185;&#220;</text>
<text id="cv_143" x="330.79" y="861.18" >&#186;&#168;&#162;&#x05A7;&#185;&#220;</text>
<text id="cv_144" x="165.13" y="713.94" >&#207;&#x0F7A;&#x0226;</text>
</g>
</g>
<g style="font-family:'Arial'; stroke:none; fill:green;" >
<g font-size="12.4053" >
<text id="cv_145" x="262.19" y="600.7" >PVC-U </text>
<text id="cv_146" x="285.33" y="662.8" >PVC-U </text>
<text id="cv_147" x="289.24" y="861.18" >PVC-U </text>
</g>
</g>
<g style="font-family:'romant'; stroke:none; fill:green;" >
<g font-size="8.27017" >
<text id="cv_148" x="486" y="671.03" >&#161;&#193;&#x023B;&#240;&#x0226;</text>
<text id="cv_149" x="470.03" y="576.57" >&#161;&#164;&#192;&#x02EE;&#210;&#xDEF7;</text>
<text id="cv_150" x="471.03" y="566.39" >&#161;&#164;&#192;&#x02EE;&#204;&#238;&#193;&#207;</text>
<text id="cv_151" x="476.13" y="508.66" >PVC-Ub&#185;&#220;</text>
<text id="cv_152" x="456.43" y="547.39" >&#x02EE;&#196;&#168;&#164;&#x0273;&#189;&#172;&#161;&#193;&#168;&#168;&#x02EE;&#x0226;</text>
<text id="cv_153" x="462.15" y="556.68" >&#197;&#168;&#176;&#213;&#205;&#x02EE;&#196;&#168;&#164;&#x0273;&#189;&#172;</text>
<text id="cv_154" x="634.01" y="561.26" >&#185;&#x073F;&#218;&#xFC75;&#185;&#189;&#199;</text>
<text id="cv_155" x="632.77" y="573.38" >&#206;&#221;&#195;&#230;&#195;&#x01B2;&#227;</text>
<text id="cv_156" x="620.94" y="671.03" >&#161;&#193;&#x023B;&#240;&#x0226;</text>
<text id="cv_157" x="660.61" y="583.26" >&#206;&#221;&#195;&#x01B0;&#229;</text>
<text id="cv_158" x="629.61" y="552.16" >&#184;&#214;&#214;&#x01B7;&#192;&#x02EE;&#204;&#x05F9;&#220; </text>
<text id="cv_159" x="594.97" y="510.4" >PVC-Ub&#185;&#220;</text>
</g>
</g>
<path id="cv_160" class="sClr_green" stroke-width="0.4" d="M433.53,918.25H664.08M433.53,915.44H664.08M850.77,500.27H1209.97M850.77,497.45H1209.97M1019.25,791.21H1257.24M1019.25,794.03H1257.24" />
<g fill="none" class="sClr_green" ><circle id="cv_161" stroke-width="0.4" cx="480.51" cy="844.89" r="1.3861" />
<circle id="cv_162" stroke-width="0.4" cx="628.94" cy="774.45" r="1.3861" />
<circle id="cv_163" stroke-width="0.4" cx="570.58" cy="811.35" r="1.3861" />
</g>
<path id="cv_164" class="fClr_black" opacity="0.7" d="M1011.63,872.12h0.25h-0.25 Z "/>
<path id="cv_165" class="sClr_black" stroke-width="0.6" d="M1004.17,865.96h2.98l0,1.9h-2.74l0,0.95h2.74l0,2.37h-3.48l0,0.95h3.73h3.73h0.5l0.25,-0.95h-3.73l0,-2.37h1.24l-0.25,0.71l0.75,1.18l0.75,-0.24l0.25,-0.47l-0.99,-0.95l0.25,-0.24h0.99l0,-0.95h-2.98l0,-1.9h3.23l0,-0.71h-2.98h-3.73l-0.5,-0.24" />
</g>
<g id="layer_WALL" class="layer_WALL"  cvjs:layerName="WALL" cvjs:status="ON">
<path id="cv_166" stroke="rgb(255,255,127)" fill="none" stroke-width="0.4" d="M295.87,725.06l0,32.47M178.12,723.04l0,34.49M178.12,764.8l0,26.78M202.08,785.37l0,6.5M215.07,791.87h-12.99M215.07,808.11l0,-16.24M221.57,808.11h-6.5M221.57,785.37h-43.45M178.12,757.53h7.28M295.87,764.8l0,26.78M269.81,785.37l0,6.5M256.82,808.11h-6.5M256.82,808.11l0,-16.24M269.81,791.87h-12.99M295.87,785.37h-45.55M295.87,757.53h7.28M288.59,764.8l14.55,-7.28M295.87,764.8h-7.28M171.41,764.8l0.57,-0.57M170.84,764.8l14.55,-7.28M178.12,764.8h-7.28M213.45,730.14h-35.33M215.07,723.64l0,4.87M221.57,723.64h-6.5M295.87,730.14h-37.42M256.82,723.64h-6.5M256.82,723.64l0,4.87M178.12,730.82l0.68,-0.68M178.12,732.97l2.83,-2.83M178.12,735.13l4.98,-4.98M215.07,724.02l0.37,-0.37M215.07,726.17l2.53,-2.53M215.07,728.32l4.68,-4.68M250.32,724.17l0.52,-0.52M250.32,726.32l2.68,-2.68M250.32,728.48l4.83,-4.83M250.32,730.63l6.5,-6.5M250.32,732.78l6.5,-6.5M250.32,734.94l6.5,-6.5M221.57,736.64h-43.45M295.87,736.64h-45.55M178.76,736.64l6.5,-6.5M180.91,736.64l6.5,-6.5M183.07,736.64l6.5,-6.5M185.22,736.64l6.5,-6.5M187.37,736.64l6.5,-6.5M189.53,736.64l6.5,-6.5M191.68,736.64l6.5,-6.5M193.83,736.64l6.5,-6.5M195.99,736.64l6.5,-6.5M198.14,736.64l6.5,-6.5M200.29,736.64l6.5,-6.5M202.45,736.64l6.5,-6.5M204.6,736.64l6.5,-6.5M206.76,736.64l6.5,-6.5M208.91,736.64l12.66,-12.66M211.06,736.64l10.51,-10.51M213.22,736.64l8.35,-8.35M215.37,736.64l6.2,-6.2M217.52,736.64l4.05,-4.05M219.68,736.64l1.89,-1.89M250.77,736.64l6.77,-6.77M252.92,736.64l6.5,-6.5M255.08,736.64l6.5,-6.5M257.23,736.64l6.5,-6.5M259.38,736.64l6.5,-6.5M261.54,736.64l6.5,-6.5M263.69,736.64l6.5,-6.5M265.85,736.64l6.5,-6.5M268,736.64l6.5,-6.5M270.15,736.64l6.5,-6.5M272.31,736.64l6.5,-6.5M274.46,736.64l6.5,-6.5M276.61,736.64l6.5,-6.5M278.77,736.64l6.5,-6.5M280.92,736.64l6.5,-6.5M283.07,736.64l6.5,-6.5M285.23,736.64l6.5,-6.5M287.38,736.64l6.5,-6.5M289.53,736.64l6.33,-6.33M291.69,736.64l4.18,-4.18M293.84,736.64l2.02,-2.02M1036.48,224.69l14.55,-7.28M1043.76,224.69l0,12.48M1043.76,224.69h-7.28M1043.76,217.41h7.28M1043.76,204.68l0,12.73M1058.43,204.68l0,12.73M1058.43,224.69l0,12.48M1051.16,224.69l14.55,-7.28M1058.43,224.69h-7.28M1058.43,217.41h7.28" />
<path id="cv_167" stroke="rgb(255,255,127)" fill="none" stroke-width="0.4" d="M213.45,730.14A 1.62433 1.62433 0 0 0 215.07 728.52M256.82,728.52A 1.62433 1.62433 0 0 0 258.44 730.14" />
</g>
<g id="layer_A" class="layer_A"  cvjs:layerName="A" cvjs:status="ON">
<path id="cv_168" class="sClr_black sLt_DgnDashDot " stroke-width="0.4" d="M253.82,691.61h49.87" /><path id="cv_169" class="sClr_black" stroke-width="0.4" d="M253.82,836.91h49.87M530.32,721.18L530.32,521.35M592.28,721.18L592.28,521.35" />
</g>
<g id="layer_" class="layer_"  cvjs:layerName="\u6392\u6C34" cvjs:status="ON">
<g style="font-family:'romant'; stroke:none; fill:yellow;" >
<g font-size="20.6754" >
<text id="cv_170" x="107.65" y="229.61" >&#189;&#211;&#202;&#210;&#205;&#188;&#x0332;&#x9FAE;</text>
<text id="cv_171" x="407.66" y="201.63" >&#197;&#197;&#x02EE;&#186;x&#x0279;&#220;</text>
<text id="cv_172" x="360.42" y="349.7" >&#187;&#168;&#172;&#196;&#253;&#205;&#193;&#205;&#226;&#x01FD;</text>
<text id="cv_173" x="364.24" y="319.17" >&#x02EE;&#196;&#168;&#164;&#x0270;&#189;&#172;</text>
<text id="cv_174" x="296.67" y="273.06" >&#161;&#164;&#192;&#x02EE;&#189;&#186;&#196;&#168;&#164;</text>
<text id="cv_175" x="376.38" y="173.43" >&#x0524;&#194;&#x0478;&#213;&#208;&#x0537;&#192;&#x02EE;&#204;&#x05F9;&#220;</text>
<text id="cv_176" x="383.04" y="222.82" >RK-1&#200;&#168;&#162;&#208;&#x053F;&#185;&#213;&#240; </text>
<text id="cv_177" x="401.84" y="242.54" >&#199;&#168;&#176;&#168;&#169;&#214;&#253;&#204;&#168;&#178;&#197;&#197;&#x02EE;&#185;&#220;</text>
</g>
<g font-size="24.8105" >
<text id="cv_178" x="211.81" y="436.09" >&#185;&#x0735;4&#169;&#x053D;&#181;&#216;&#207;&#194;&#202;&#210;&#205;&#226;&#x01FD;&#180;&#168;&#174;&#209;&#168;&#180;&#x037C;</text>
</g>
</g>
<path id="cv_179" class="sClr_yellow" stroke-width="0.4" d="M181.05,231.39h-75.13M289.61,364.46l-10.92,-21.83M289.61,353.54l0,10.92M209.95,442.96H424.41M209.95,440.14H424.41M266.33,223.84l51.75,-51.75M269.31,212.25l40.16,-40.16M260.97,201.69l0.99,2.94M258.55,203.33l2.42,-1.63M309.41,223.84l35.42,-35.42M318.02,223.84l26.8,-26.8M340.71,223.76l34.5,-48.75M284.22,223.19l40.47,-40.47M292.18,223.84l51.75,-51.75M344.82,172.09l0,66.37M223,172.09l0,66.37M232.52,223.2l51.46,-51.46M223,215.5l43.41,-43.41M223,206.88l34.79,-34.79M308.27,293.77l0,-12.18M281.13,293.77l12.18,-12.18M272.52,293.77l12.18,-12.18M263.9,293.77l12.18,-12.18M259.54,289.52l7.93,-7.93M259.54,293.77l0,-12.18M289.75,293.77l12.18,-12.18M344.82,281.59l0,71.95M286.29,287.35l8.65,-13.66M223,281.59l0,71.95M298.36,293.77l9.91,-9.91M240.01,353.54l42.68,-42.68M257.24,353.54l57.33,-57.33M265.85,353.54l57.33,-57.33M253.57,332.66l2.35,-2.8M253.57,332.66l2.91,0.25M256.48,332.92l-0.56,-3.05M278.69,353.54l0,-10.92M249.17,353.54l0.94,-2.79M246.69,352.06l3.41,-1.31M246.69,352.06l2.19,1.48M265.08,308.07l4.33,0.67M260.97,318.36l0.99,-2.94M265.08,308.07l3.8,-3.96M269.42,308.74l-0.54,-4.63M258.55,316.73l3.41,-1.31M258.55,316.73l2.42,1.63M338.2,287.78l22.79,33.18M337.98,316.36l22.25,35.13M308.92,353.54l35.9,-35.9M291.69,353.54l53.13,-53.13M283.79,352.83l56.62,-56.62M289.61,353.54h64.54M317.54,353.54l27.28,-27.28M288.52,335.72l2.35,-2.8M288.52,335.72l2.91,0.25M291.44,335.98l-0.56,-3.05M287.63,336.34l3.41,-1.31M286.67,358.57l2.94,-2.94M287.63,336.34l2.42,1.63M290.06,337.98l0.99,-2.94M323.47,338.78l2.91,0.25M343.38,353.54l1.44,-1.44M334.77,353.54l10.05,-10.05M323.47,338.78l2.35,-2.8M326.39,339.03l-0.56,-3.05M316.71,302.12l2.35,-2.8M316.71,302.12l2.91,0.25M317.09,316.13l3.8,-3.96M317.09,316.13l4.33,0.67M306.97,293.77l1.3,-1.3M299.49,301.01l3.41,-1.31M299.49,301.01l2.42,1.63M301.91,302.64l0.99,-2.94M285.13,299.81l3.6,-3.6M282.69,305.33l2.44,0.65M282.69,306.9l2.44,0.65M282.69,299.02l2.44,0.65M282.69,303.75l2.44,0.65M282.69,300.6l2.44,0.65M282.69,302.17l2.44,0.65M282.69,297.44l2.44,0.65M282.69,308.48l2.44,0.65M282.69,310.86h2.44M282.69,310.06l2.44,0.65M282.69,296.21l0,14.65M285.13,310.86l0,-14.65M285.13,308.42l12.21,-12.21M319.63,302.38l-0.56,-3.05M331,322.26l0.99,-2.94M321.43,316.8l-0.54,-4.63M328.58,320.63l3.41,-1.31M328.58,320.63l2.42,1.63M360.23,351.49h61.92M361,320.96h53.47M223,351.93l0.34,-0.35M223.56,353.54l-0.23,-1.96M229.46,297.11l3.41,-1.31M229.46,297.11l2.42,1.63M231.88,298.74l0.99,-2.94M223,310.25l14.05,-14.05M344.82,296.21H223M344.82,293.77H223M231.39,353.54l51.3,-51.3M223,336.1l39.89,-39.89M223,344.71l48.5,-48.5M214.72,353.54h63.97M223,318.87l22.66,-22.66M381.16,202.76H485.38M276.14,238.46l12.18,-12.18M240.49,223.84l19.83,-19.83M265.08,211.99l3.8,3.96M269.42,211.31l-0.54,4.63M257.72,223.84l9.56,-9.56M267.53,238.46l12.18,-12.18M259.54,237.83l11.55,-11.55M259.54,229.22l2.94,-2.94M259.54,238.46l0,-12.18M258.55,203.33l3.41,1.31M265.08,211.99l4.33,-0.67M282.69,223.84l0,-14.71M285.13,209.13l0,14.71M282.69,211.96l1.22,0.33M316.71,217.93l2.91,-0.25M316.71,217.93l2.35,2.8M299.49,219.04l2.42,-1.63M299.49,219.04l3.41,1.31M301.91,217.41l0.99,2.94M283.91,217.01l1.22,0.33M283.91,218.59l1.22,0.33M283.91,220.17l1.22,0.33M283.91,221.74l1.22,0.33M283.66,223.75l0.23,-0.23M282.69,216.69l1.22,0.33M282.69,218.27l1.22,0.33M282.69,219.84l1.22,0.33M282.69,221.42l1.22,0.33M283.91,212.29l1.22,0.33M283.91,213.86l1.22,0.33M283.91,215.44l1.22,0.33M282.69,215.11l1.22,0.33M282.69,213.54l1.22,0.33M301.98,238.46l6.29,-6.29M308.27,238.46l0,-12.18M293.37,238.46l12.18,-12.18M284.75,238.46l12.18,-12.18M335.25,223.84l9.57,-9.57M343.86,223.84l0.96,-0.96M319.63,217.67l-0.56,3.05M344.82,233.52l0,-20.88M317.09,203.92l4.33,-0.67M317.09,203.92l3.8,3.96M283.91,209.13l1.22,0.33M283.91,210.71l1.22,0.33M282.69,210.38l1.22,0.33M282.69,209.13h2.44M321.43,203.25l-0.54,4.63M383.06,240.9h-20.09M385.51,238.46h-28.61M364.31,237.87l16.85,-35.11M223,231.97l0,-22.39M181.05,231.39l5.71,27.67M344.82,223.84H223M344.82,226.28H223M383.06,240.9H190.12M385.51,238.46H187.67M400.49,260.03H182.23M294.93,273.69h50.78M383.06,279.15h-20.09M385.51,281.59h-28.61M189.81,279.53l0.38,-0.38M187.76,281.59l0.36,-0.36M383.06,279.15H190.12M385.51,281.59H187.67M261.39,202.94l25.46,-25.46M289.61,183.01l-10.92,-21.83M253.57,187.39l2.91,-0.25M253.57,187.39l2.35,2.8M256.48,187.13l-0.56,3.05M278.69,172.09l0,-10.92M326.39,181.02l8.93,-8.93M289.61,172.09l0,10.92M289.61,174.73l2.64,-2.64M287.63,183.71l3.41,1.31M288.52,184.33l2.91,-0.25M288.52,184.33l2.35,2.8M291.44,184.08l-0.56,3.05M290.06,182.07l0.99,2.94M287.63,183.71l2.42,-1.63M323.47,181.27l2.91,-0.25M323.47,181.27l2.35,2.8M326.39,181.02l-0.56,3.05M289.61,172.09h64.54M474.14,175.01h-98.93M223,181.04l8.95,-8.95M223,189.65l17.56,-17.56M214.16,172.09h64.54" />
<path id="cv_180" class="sClr_yellow" stroke-width="0.6" d="M385.51,260.03A 13.5915 13.5915 0 0 0 385.51 238.46M385.51,238.46A 13.5915 13.5915 0 0 0 385.51 260.03M187.67,260.03A 13.5915 13.5915 0 0 0 187.67 238.46M187.67,260.03A 13.5915 13.5915 0 0 0 187.67 238.46M187.67,281.59A 13.5915 13.5915 0 0 0 187.67 260.03M187.67,260.03A 13.5915 13.5915 0 0 0 187.67 281.59M385.51,260.03A 13.5915 13.5915 0 0 0 385.51 281.59" />
</g>
<g id="layer_" class="layer_"  cvjs:layerName="\u56FE\u6846" cvjs:status="ON">
<path id="cv_181" stroke="rgb(63,127,127)" fill="none" stroke-width="0.6" d="M41.39,966.82H1375.74L1375.74,16.56H41.39L41.39,966.82M0,983.38H1392.29L1392.29,0H0L0,983.38" />
</g>
</svg>